Muli-ExtraLight.ufo
<glyph name="numbersign" format="2">
  <advance width="600"/>
  <unicode hex="0023"/>
  <outline>
    <contour>
      <point x="93" y="0" type="line"/>
      <point x="137" y="0" type="line"/>
      <point x="175" y="191" type="line"/>
      <point x="358" y="191" type="line"/>
      <point x="319" y="0" type="line"/>
      <point x="363" y="0" type="line"/>
      <point x="402" y="191" type="line"/>
      <point x="557" y="191" type="line"/>
      <point x="557" y="231" type="line"/>
      <point x="409" y="231" type="line"/>
      <point x="460" y="482" type="line"/>
      <point x="577" y="482" type="line"/>
      <point x="577" y="522" type="line"/>
      <point x="468" y="522" type="line"/>
      <point x="505" y="705" type="line"/>
      <point x="461" y="705" type="line"/>
      <point x="425" y="522" type="line"/>
      <point x="241" y="522" type="line"/>
      <point x="277" y="705" type="line"/>
      <point x="235" y="705" type="line"/>
      <point x="198" y="522" type="line"/>
      <point x="43" y="522" type="line"/>
      <point x="43" y="482" type="line"/>
      <point x="190" y="482" type="line"/>
      <point x="139" y="231" type="line"/>
      <point x="23" y="231" type="line"/>
      <point x="23" y="191" type="line"/>
      <point x="132" y="191" type="line"/>
    </contour>
    <contour>
      <point x="182" y="231" type="line"/>
      <point x="233" y="482" type="line"/>
      <point x="417" y="482" type="line"/>
      <point x="366" y="231" type="line"/>
    </contour>
  </outline>
</glyph>
<glyph name="ampersand" format="2">
  <advance width="655"/>
  <unicode hex="0026"/>
  <outline>
    <contour>
      <point x="646" y="-8" type="curve"/>
      <point x="670" y="25" type="line"/>
      <point x="611" y="57"/>
      <point x="556" y="107"/>
      <point x="524" y="144" type="curve"/>
      <point x="526" y="126" type="line"/>
      <point x="568" y="196"/>
      <point x="595" y="292"/>
      <point x="598" y="404" type="curve"/>
      <point x="557" y="404" type="line"/>
      <point x="555" y="307"/>
      <point x="533" y="216"/>
      <point x="499" y="160" type="curve"/>
      <point x="510" y="160" type="line"/>
      <point x="300" y="396" type="line"/>
      <point x="298" y="383" type="line"/>
      <point x="421" y="462"/>
      <point x="456" y="511"/>
      <point x="456" y="580" type="curve" smooth="yes"/>
      <point x="456" y="662"/>
      <point x="393" y="713"/>
      <point x="313" y="713" type="curve" smooth="yes"/>
      <point x="217" y="713"/>
      <point x="155" y="654"/>
      <point x="155" y="569" type="curve" smooth="yes"/>
      <point x="155" y="513"/>
      <point x="182" y="468"/>
      <point x="249" y="393" type="curve"/>
      <point x="254" y="401" type="line"/>
      <point x="222" y="379" type="line" smooth="yes"/>
      <point x="119" y="308"/>
      <point x="65" y="252"/>
      <point x="65" y="160" type="curve" smooth="yes"/>
      <point x="65" y="58"/>
      <point x="143" y="-8"/>
      <point x="279" y="-8" type="curve" smooth="yes"/>
      <point x="377" y="-8"/>
      <point x="461" y="35"/>
      <point x="515" y="110" type="curve"/>
      <point x="502" y="110" type="line"/>
      <point x="532" y="74"/>
      <point x="584" y="26"/>
    </contour>
    <contour>
      <point x="278" y="31" type="curve" smooth="yes"/>
      <point x="166" y="31"/>
      <point x="107" y="79"/>
      <point x="107" y="161" type="curve" smooth="yes"/>
      <point x="107" y="238"/>
      <point x="148" y="282"/>
      <point x="247" y="350" type="curve" smooth="yes"/>
      <point x="280" y="373" type="line"/>
      <point x="266" y="373" type="line"/>
      <point x="490" y="124" type="line"/>
      <point x="490" y="142" type="line"/>
      <point x="441" y="70"/>
      <point x="370" y="31"/>
    </contour>
    <contour>
      <point x="313" y="674" type="curve" smooth="yes"/>
      <point x="374" y="674"/>
      <point x="415" y="635"/>
      <point x="415" y="576" type="curve" smooth="yes"/>
      <point x="415" y="520"/>
      <point x="372" y="476"/>
      <point x="271" y="409" type="curve"/>
      <point x="286" y="413" type="line"/>
      <point x="217" y="490"/>
      <point x="197" y="520"/>
      <point x="197" y="568" type="curve" smooth="yes"/>
      <point x="197" y="632"/>
      <point x="244" y="674"/>
    </contour>
  </outline>
</glyph>
<glyph name="parenleft" format="2">
  <advance width="284"/>
  <unicode hex="0028"/>
  <outline>
    <contour>
      <point x="215" y="-180" type="curve"/>
      <point x="253" y="-180" type="line"/>
      <point x="186" y="-35"/>
      <point x="149" y="115"/>
      <point x="149" y="263" type="curve" smooth="yes"/>
      <point x="149" y="411"/>
      <point x="186" y="560"/>
      <point x="253" y="705" type="curve"/>
      <point x="215" y="705" type="line"/>
      <point x="141" y="555"/>
      <point x="105" y="419"/>
      <point x="105" y="263" type="curve" smooth="yes"/>
      <point x="105" y="107"/>
      <point x="141" y="-30"/>
    </contour>
  </outline>
</glyph>
<glyph name="parenright" format="2">
  <advance width="284"/>
  <unicode hex="0029"/>
  <outline>
    <contour>
      <point x="69" y="-180" type="line"/>
      <point x="143" y="-30"/>
      <point x="179" y="106"/>
      <point x="179" y="262" type="curve" smooth="yes"/>
      <point x="179" y="418"/>
      <point x="143" y="555"/>
      <point x="69" y="705" type="curve"/>
      <point x="31" y="705" type="line"/>
      <point x="98" y="560"/>
      <point x="135" y="410"/>
      <point x="135" y="262" type="curve" smooth="yes"/>
      <point x="135" y="114"/>
      <point x="98" y="-35"/>
      <point x="31" y="-180" type="curve"/>
    </contour>
  </outline>
</glyph>
<glyph name="plus" format="2">
  <advance width="600"/>
  <unicode hex="002B"/>
  <outline>
    <contour>
      <point x="280" y="37" type="line"/>
      <point x="320" y="37" type="line"/>
      <point x="320" y="267" type="line"/>
      <point x="548" y="267" type="line"/>
      <point x="548" y="306" type="line"/>
      <point x="320" y="306" type="line"/>
      <point x="320" y="532" type="line"/>
      <point x="280" y="532" type="line"/>
      <point x="280" y="306" type="line"/>
      <point x="52" y="306" type="line"/>
      <point x="52" y="267" type="line"/>
      <point x="280" y="267" type="line"/>
    </contour>
  </outline>
</glyph>
<glyph name="comma" format="2">
  <advance width="211"/>
  <unicode hex="002C"/>
  <outline>
    <contour>
      <point x="96" y="-98" type="line"/>
      <point x="130" y="-65"/>
      <point x="140" y="-27"/>
      <point x="140" y="15" type="curve" smooth="yes"/>
      <point x="140" y="70" type="line"/>
      <point x="71" y="70" type="line"/>
      <point x="71" y="0" type="line"/>
      <point x="113" y="0" type="line"/>
      <point x="103" y="6" type="line"/>
      <point x="103" y="-20"/>
      <point x="99" y="-46"/>
      <point x="70" y="-78" type="curve"/>
    </contour>
  </outline>
</glyph>
<glyph name="one" format="2">
  <advance width="600"/>
  <unicode hex="0031"/>
  <outline>
    <contour>
      <point x="142" y="0" type="line"/>
      <point x="512" y="0" type="line"/>
      <point x="512" y="39" type="line"/>
      <point x="353" y="39" type="line"/>
      <point x="353" y="705" type="line"/>
      <point x="322" y="705" type="line"/>
      <point x="157" y="596" type="line"/>
      <point x="157" y="549" type="line"/>
      <point x="338" y="667" type="line"/>
      <point x="311" y="667" type="line"/>
      <point x="311" y="39" type="line"/>
      <point x="142" y="39" type="line"/>
    </contour>
  </outline>
</glyph>
<glyph name="three" format="2">
  <advance width="600"/>
  <unicode hex="0033"/>
  <outline>
    <contour>
      <point x="303" y="-8" type="curve" smooth="yes"/>
      <point x="444" y="-8"/>
      <point x="530" y="67"/>
      <point x="530" y="188" type="curve" smooth="yes"/>
      <point x="530" y="284"/>
      <point x="473" y="350"/>
      <point x="370" y="368" type="curve"/>
      <point x="370" y="358" type="line"/>
      <point x="457" y="380"/>
      <point x="511" y="448"/>
      <point x="511" y="537" type="curve" smooth="yes"/>
      <point x="511" y="647"/>
      <point x="432" y="713"/>
      <point x="301" y="713" type="curve" smooth="yes"/>
      <point x="211" y="713"/>
      <point x="126" y="678"/>
      <point x="74" y="619" type="curve"/>
      <point x="94" y="583" type="line"/>
      <point x="153" y="644"/>
      <point x="219" y="672"/>
      <point x="301" y="672" type="curve" smooth="yes"/>
      <point x="406" y="672"/>
      <point x="467" y="623"/>
      <point x="467" y="537" type="curve" smooth="yes"/>
      <point x="467" y="439"/>
      <point x="398" y="378"/>
      <point x="291" y="378" type="curve" smooth="yes"/>
      <point x="194" y="378" type="line"/>
      <point x="194" y="339" type="line"/>
      <point x="293" y="339" type="line" smooth="yes"/>
      <point x="419" y="339"/>
      <point x="486" y="287"/>
      <point x="486" y="188" type="curve" smooth="yes"/>
      <point x="486" y="88"/>
      <point x="421" y="33"/>
      <point x="303" y="33" type="curve" smooth="yes"/>
      <point x="219" y="33"/>
      <point x="151" y="57"/>
      <point x="82" y="116" type="curve"/>
      <point x="61" y="80" type="line"/>
      <point x="122" y="23"/>
      <point x="209" y="-8"/>
    </contour>
  </outline>
</glyph>
<glyph name="seven" format="2">
  <advance width="600"/>
  <unicode hex="0037"/>
  <outline>
    <contour>
      <point x="136" y="0" type="line"/>
      <point x="183" y="0" type="line"/>
      <point x="524" y="674" type="line"/>
      <point x="524" y="705" type="line"/>
      <point x="76" y="705" type="line"/>
      <point x="76" y="666" type="line"/>
      <point x="489" y="666" type="line"/>
      <point x="489" y="694" type="line"/>
    </contour>
  </outline>
</glyph>
<glyph name="equal" format="2">
  <advance width="600"/>
  <unicode hex="003D"/>
  <outline>
    <contour>
      <point x="52" y="367" type="line"/>
      <point x="548" y="367" type="line"/>
      <point x="548" y="406" type="line"/>
      <point x="52" y="406" type="line"/>
    </contour>
    <contour>
      <point x="52" y="168" type="line"/>
      <point x="548" y="168" type="line"/>
      <point x="548" y="207" type="line"/>
      <point x="52" y="207" type="line"/>
    </contour>
  </outline>
</glyph>
<glyph name="greater" format="2">
  <advance width="600"/>
  <unicode hex="003E"/>
  <outline>
    <contour>
      <point x="53" y="36" type="line"/>
      <point x="548" y="269" type="line"/>
      <point x="548" y="305" type="line"/>
      <point x="53" y="538" type="line"/>
      <point x="53" y="494" type="line"/>
      <point x="519" y="276" type="line"/>
      <point x="519" y="298" type="line"/>
      <point x="53" y="81" type="line"/>
    </contour>
  </outline>
</glyph>
<glyph name="at" format="2">
  <advance width="973"/>
  <unicode hex="0040"/>
  <outline>
    <contour>
      <point x="498" y="-162" type="curve" smooth="yes"/>
      <point x="625" y="-162"/>
      <point x="734" y="-121"/>
      <point x="801" y="-46" type="curve"/>
      <point x="774" y="-14" type="line"/>
      <point x="716" y="-83"/>
      <point x="617" y="-123"/>
      <point x="498" y="-123" type="curve" smooth="yes"/>
      <point x="261" y="-123"/>
      <point x="111" y="27"/>
      <point x="111" y="276" type="curve" smooth="yes"/>
      <point x="111" y="513"/>
      <point x="270" y="674"/>
      <point x="508" y="674" type="curve" smooth="yes"/>
      <point x="719" y="674"/>
      <point x="865" y="540"/>
      <point x="865" y="345" type="curve" smooth="yes"/>
      <point x="865" y="195"/>
      <point x="803" y="96"/>
      <point x="712" y="96" type="curve" smooth="yes"/>
      <point x="665" y="96"/>
      <point x="642" y="120"/>
      <point x="642" y="168" type="curve" smooth="yes"/>
      <point x="642" y="180"/>
      <point x="643" y="194"/>
      <point x="646" y="209" type="curve" smooth="yes"/>
      <point x="695" y="484" type="line"/>
      <point x="653" y="484" type="line"/>
      <point x="636" y="389" type="line"/>
      <point x="643" y="389" type="line"/>
      <point x="631" y="453"/>
      <point x="579" y="492"/>
      <point x="502" y="492" type="curve" smooth="yes"/>
      <point x="373" y="492"/>
      <point x="277" y="385"/>
      <point x="277" y="236" type="curve" smooth="yes"/>
      <point x="277" y="125"/>
      <point x="336" y="59"/>
      <point x="439" y="59" type="curve" smooth="yes"/>
      <point x="507" y="59"/>
      <point x="575" y="99"/>
      <point x="611" y="169" type="curve"/>
      <point x="603" y="188" type="line"/>
      <point x="588" y="110"/>
      <point x="630" y="59"/>
      <point x="709" y="59" type="curve" smooth="yes"/>
      <point x="826" y="59"/>
      <point x="905" y="172"/>
      <point x="905" y="345" type="curve" smooth="yes"/>
      <point x="905" y="565"/>
      <point x="744" y="713"/>
      <point x="509" y="713" type="curve" smooth="yes"/>
      <point x="249" y="713"/>
      <point x="68" y="535"/>
      <point x="68" y="276" type="curve" smooth="yes"/>
      <point x="68" y="6"/>
      <point x="237" y="-162"/>
    </contour>
    <contour>
      <point x="440" y="98" type="curve" smooth="yes"/>
      <point x="364" y="98"/>
      <point x="320" y="147"/>
      <point x="320" y="236" type="curve" smooth="yes"/>
      <point x="320" y="362"/>
      <point x="399" y="453"/>
      <point x="503" y="453" type="curve" smooth="yes"/>
      <point x="585" y="453"/>
      <point x="623" y="412"/>
      <point x="623" y="326" type="curve" smooth="yes"/>
      <point x="623" y="195"/>
      <point x="545" y="98"/>
    </contour>
  </outline>
</glyph>
<glyph name="A" format="2">
  <advance width="721"/>
  <unicode hex="0041"/>
  <anchor x="358" y="0" name="bottom"/>
  <anchor x="687" y="0" name="ogonek"/>
  <anchor x="358" y="705" name="top"/>
  <outline>
    <contour>
      <point x="34" y="0" type="line"/>
      <point x="79" y="0" type="line"/>
      <point x="166" y="204" type="line"/>
      <point x="138" y="195" type="line"/>
      <point x="575" y="195" type="line"/>
      <point x="552" y="204" type="line"/>
      <point x="641" y="0" type="line"/>
      <point x="687" y="0" type="line"/>
      <point x="378" y="705" type="line"/>
      <point x="337" y="705" type="line"/>
    </contour>
    <contour>
      <point x="356" y="649" type="line"/>
      <point x="358" y="649" type="line"/>
      <point x="542" y="228" type="line"/>
      <point x="558" y="234" type="line"/>
      <point x="155" y="234" type="line"/>
      <point x="177" y="228" type="line"/>
    </contour>
  </outline>
</glyph>
<glyph name="C" format="2">
  <advance width="684"/>
  <unicode hex="0043"/>
  <anchor x="384" y="0" name="bottom"/>
  <anchor x="386" y="705" name="top"/>
  <outline>
    <contour>
      <point x="385" y="-8" type="curve" smooth="yes"/>
      <point x="486" y="-8"/>
      <point x="564" y="25"/>
      <point x="624" y="88" type="curve"/>
      <point x="602" y="123" type="line"/>
      <point x="537" y="60"/>
      <point x="475" y="33"/>
      <point x="384" y="33" type="curve" smooth="yes"/>
      <point x="206" y="33"/>
      <point x="113" y="150"/>
      <point x="113" y="353" type="curve" smooth="yes"/>
      <point x="113" y="555"/>
      <point x="206" y="672"/>
      <point x="384" y="672" type="curve" smooth="yes"/>
      <point x="475" y="672"/>
      <point x="537" y="645"/>
      <point x="602" y="582" type="curve"/>
      <point x="624" y="617" type="line"/>
      <point x="564" y="680"/>
      <point x="487" y="713"/>
      <point x="385" y="713" type="curve" smooth="yes"/>
      <point x="181" y="713"/>
      <point x="68" y="576"/>
      <point x="68" y="353" type="curve" smooth="yes"/>
      <point x="68" y="129"/>
      <point x="181" y="-8"/>
    </contour>
  </outline>
</glyph>
<glyph name="D" format="2">
  <advance width="733"/>
  <unicode hex="0044"/>
  <anchor x="372" y="0" name="bottom"/>
  <anchor x="176" y="358" name="center"/>
  <anchor x="372" y="705" name="top"/>
  <outline>
    <contour>
      <point x="97" y="0" type="line"/>
      <point x="311" y="0" type="line" smooth="yes"/>
      <point x="539" y="0"/>
      <point x="665" y="122"/>
      <point x="665" y="353" type="curve" smooth="yes"/>
      <point x="665" y="583"/>
      <point x="539" y="705"/>
      <point x="311" y="705" type="curve" smooth="yes"/>
      <point x="97" y="705" type="line"/>
    </contour>
    <contour>
      <point x="139" y="39" type="line"/>
      <point x="139" y="666" type="line"/>
      <point x="307" y="666" type="line" smooth="yes"/>
      <point x="517" y="666"/>
      <point x="620" y="562"/>
      <point x="620" y="353" type="curve" smooth="yes"/>
      <point x="620" y="144"/>
      <point x="517" y="39"/>
      <point x="307" y="39" type="curve" smooth="yes"/>
    </contour>
  </outline>
</glyph>
<glyph name="F" format="2">
  <advance width="554"/>
  <unicode hex="0046"/>
  <anchor x="300" y="0" name="bottom"/>
  <anchor x="300" y="705" name="top"/>
  <outline>
    <contour>
      <point x="97" y="0" type="line"/>
      <point x="139" y="0" type="line"/>
      <point x="139" y="338" type="line"/>
      <point x="494" y="338" type="line"/>
      <point x="494" y="377" type="line"/>
      <point x="139" y="377" type="line"/>
      <point x="139" y="666" type="line"/>
      <point x="515" y="666" type="line"/>
      <point x="515" y="705" type="line"/>
      <point x="97" y="705" type="line"/>
    </contour>
  </outline>
</glyph>
<glyph name="G" format="2">
  <advance width="723"/>
  <unicode hex="0047"/>
  <anchor x="406" y="0" name="bottom"/>
  <anchor x="391" y="705" name="top"/>
  <outline>
    <contour>
      <point x="406" y="-8" type="curve" smooth="yes"/>
      <point x="490" y="-8"/>
      <point x="583" y="13"/>
      <point x="634" y="41" type="curve"/>
      <point x="634" y="357" type="line"/>
      <point x="400" y="357" type="line"/>
      <point x="400" y="318" type="line"/>
      <point x="594" y="318" type="line"/>
      <point x="594" y="38" type="line"/>
      <point x="606" y="74" type="line"/>
      <point x="547" y="47"/>
      <point x="482" y="33"/>
      <point x="406" y="33" type="curve" smooth="yes"/>
      <point x="206" y="33"/>
      <point x="113" y="145"/>
      <point x="113" y="352" type="curve" smooth="yes"/>
      <point x="113" y="555"/>
      <point x="213" y="672"/>
      <point x="391" y="672" type="curve" smooth="yes"/>
      <point x="484" y="672"/>
      <point x="537" y="645"/>
      <point x="604" y="582" type="curve"/>
      <point x="626" y="617" type="line"/>
      <point x="565" y="680"/>
      <point x="495" y="713"/>
      <point x="392" y="713" type="curve" smooth="yes"/>
      <point x="188" y="713"/>
      <point x="68" y="576"/>
      <point x="68" y="353" type="curve" smooth="yes"/>
      <point x="68" y="124"/>
      <point x="181" y="-8"/>
    </contour>
  </outline>
</glyph>
<glyph name="H" format="2">
  <advance width="759"/>
  <unicode hex="0048"/>
  <anchor x="380" y="0" name="bottom"/>
  <anchor x="380" y="546" name="center"/>
  <anchor x="380" y="705" name="top"/>
  <anchor x="25" y="705" name="topleft"/>
  <outline>
    <contour>
      <point x="97" y="0" type="line"/>
      <point x="139" y="0" type="line"/>
      <point x="139" y="338" type="line"/>
      <point x="620" y="338" type="line"/>
      <point x="620" y="0" type="line"/>
      <point x="662" y="0" type="line"/>
      <point x="662" y="705" type="line"/>
      <point x="620" y="705" type="line"/>
      <point x="620" y="377" type="line"/>
      <point x="139" y="377" type="line"/>
      <point x="139" y="705" type="line"/>
      <point x="97" y="705" type="line"/>
    </contour>
  </outline>
</glyph>
<glyph name="J" format="2">
  <advance width="300"/>
  <unicode hex="004A"/>
  <anchor x="181" y="0" name="bottom"/>
  <anchor x="181" y="705" name="top"/>
  <outline>
    <contour>
      <point x="70" y="-186" type="curve" smooth="yes"/>
      <point x="158" y="-186"/>
      <point x="203" y="-127"/>
      <point x="203" y="-26" type="curve" smooth="yes"/>
      <point x="203" y="705" type="line"/>
      <point x="161" y="705" type="line"/>
      <point x="161" y="-24" type="line" smooth="yes"/>
      <point x="161" y="-110"/>
      <point x="125" y="-148"/>
      <point x="64" y="-148" type="curve" smooth="yes"/>
      <point x="45" y="-148"/>
      <point x="25" y="-145"/>
      <point x="0" y="-139" type="curve"/>
      <point x="0" y="-178" type="line"/>
      <point x="25" y="-185"/>
      <point x="49" y="-186"/>
    </contour>
  </outline>
</glyph>
<glyph name="K" format="2">
  <advance width="605"/>
  <unicode hex="004B"/>
  <anchor x="309" y="0" name="bottom"/>
  <anchor x="308" y="705" name="top"/>
  <anchor x="25" y="705" name="topleft"/>
  <outline>
    <contour>
      <point x="97" y="0" type="line"/>
      <point x="139" y="0" type="line"/>
      <point x="139" y="338" type="line"/>
      <point x="141" y="338" type="line"/>
      <point x="536" y="0" type="line"/>
      <point x="599" y="0" type="line"/>
      <point x="161" y="373" type="line"/>
      <point x="160" y="343" type="line"/>
      <point x="568" y="705" type="line"/>
      <point x="507" y="705" type="line"/>
      <point x="141" y="377" type="line"/>
      <point x="139" y="377" type="line"/>
      <point x="139" y="705" type="line"/>
      <point x="97" y="705" type="line"/>
    </contour>
  </outline>
</glyph>
<glyph name="M" format="2">
  <advance width="848"/>
  <unicode hex="004D"/>
  <anchor x="424" y="0" name="bottom"/>
  <anchor x="424" y="705" name="top"/>
  <outline>
    <contour>
      <point x="97" y="0" type="line"/>
      <point x="136" y="0" type="line"/>
      <point x="136" y="665" type="line"/>
      <point x="112" y="665" type="line"/>
      <point x="407" y="0" type="line"/>
      <point x="442" y="0" type="line"/>
      <point x="736" y="664" type="line"/>
      <point x="712" y="664" type="line"/>
      <point x="712" y="0" type="line"/>
      <point x="751" y="0" type="line"/>
      <point x="751" y="705" type="line"/>
      <point x="715" y="705" type="line"/>
      <point x="410" y="17" type="line"/>
      <point x="438" y="17" type="line"/>
      <point x="134" y="705" type="line"/>
      <point x="97" y="705" type="line"/>
    </contour>
  </outline>
</glyph>
<glyph name="N" format="2">
  <advance width="739"/>
  <unicode hex="004E"/>
  <anchor x="370" y="0" name="bottom"/>
  <anchor x="370" y="705" name="top"/>
  <outline>
    <contour>
      <point x="97" y="0" type="line"/>
      <point x="136" y="0" type="line"/>
      <point x="136" y="663" type="line"/>
      <point x="116" y="663" type="line"/>
      <point x="607" y="0" type="line"/>
      <point x="642" y="0" type="line"/>
      <point x="642" y="705" type="line"/>
      <point x="603" y="705" type="line"/>
      <point x="603" y="42" type="line"/>
      <point x="624" y="42" type="line"/>
      <point x="133" y="705" type="line"/>
      <point x="97" y="705" type="line"/>
    </contour>
  </outline>
</glyph>
<glyph name="S" format="2">
  <advance width="604"/>
  <unicode hex="0053"/>
  <anchor x="319" y="0" name="bottom"/>
  <anchor x="313" y="705" name="top"/>
  <outline>
    <contour>
      <point x="313" y="-8" type="curve" smooth="yes"/>
      <point x="463" y="-8"/>
      <point x="555" y="68"/>
      <point x="555" y="179" type="curve" smooth="yes"/>
      <point x="555" y="277"/>
      <point x="495" y="325"/>
      <point x="356" y="353" type="curve" smooth="yes"/>
      <point x="256" y="373" type="line" smooth="yes"/>
      <point x="152" y="394"/>
      <point x="108" y="434"/>
      <point x="108" y="513" type="curve" smooth="yes"/>
      <point x="108" y="610"/>
      <point x="186" y="672"/>
      <point x="309" y="672" type="curve" smooth="yes"/>
      <point x="398" y="672"/>
      <point x="464" y="647"/>
      <point x="529" y="585" type="curve"/>
      <point x="549" y="621" type="line"/>
      <point x="490" y="682"/>
      <point x="408" y="713"/>
      <point x="309" y="713" type="curve" smooth="yes"/>
      <point x="163" y="713"/>
      <point x="64" y="632"/>
      <point x="64" y="513" type="curve" smooth="yes"/>
      <point x="64" y="412"/>
      <point x="126" y="357"/>
      <point x="255" y="331" type="curve" smooth="yes"/>
      <point x="354" y="311" type="line" smooth="yes"/>
      <point x="468" y="288"/>
      <point x="511" y="253"/>
      <point x="511" y="178" type="curve" smooth="yes"/>
      <point x="511" y="90"/>
      <point x="443" y="33"/>
      <point x="312" y="33" type="curve" smooth="yes"/>
      <point x="205" y="33"/>
      <point x="146" y="58"/>
      <point x="73" y="116" type="curve"/>
      <point x="52" y="80" type="line"/>
      <point x="119" y="22"/>
      <point x="200" y="-8"/>
    </contour>
  </outline>
</glyph>
<glyph name="T" format="2">
  <advance width="590"/>
  <unicode hex="0054"/>
  <anchor x="295" y="0" name="bottom"/>
  <anchor x="295" y="358" name="center"/>
  <anchor x="295" y="705" name="top"/>
  <outline>
    <contour>
      <point x="272" y="0" type="line"/>
      <point x="314" y="0" type="line"/>
      <point x="314" y="666" type="line"/>
      <point x="576" y="666" type="line"/>
      <point x="576" y="705" type="line"/>
      <point x="10" y="705" type="line"/>
      <point x="10" y="666" type="line"/>
      <point x="272" y="666" type="line"/>
    </contour>
  </outline>
</glyph>
<glyph name="Z" format="2">
  <advance width="585"/>
  <unicode hex="005A"/>
  <anchor x="294" y="0" name="bottom"/>
  <anchor x="294" y="705" name="top"/>
  <outline>
    <contour>
      <point x="42" y="0" type="line"/>
      <point x="546" y="0" type="line"/>
      <point x="546" y="39" type="line"/>
      <point x="81" y="39" type="line"/>
      <point x="81" y="16" type="line"/>
      <point x="536" y="674" type="line"/>
      <point x="536" y="705" type="line"/>
      <point x="42" y="705" type="line"/>
      <point x="42" y="666" type="line"/>
      <point x="496" y="666" type="line"/>
      <point x="496" y="689" type="line"/>
      <point x="42" y="31" type="line"/>
    </contour>
  </outline>
</glyph>
<glyph name="bracketleft" format="2">
  <advance width="284"/>
  <unicode hex="005B"/>
  <outline>
    <contour>
      <point x="110" y="-180" type="line"/>
      <point x="280" y="-180" type="line"/>
      <point x="280" y="-143" type="line"/>
      <point x="152" y="-143" type="line"/>
      <point x="152" y="668" type="line"/>
      <point x="280" y="668" type="line"/>
      <point x="280" y="705" type="line"/>
      <point x="110" y="705" type="line"/>
    </contour>
  </outline>
</glyph>
<glyph name="bracketright" format="2">
  <advance width="284"/>
  <unicode hex="005D"/>
  <outline>
    <contour>
      <point x="4" y="-180" type="line"/>
      <point x="173" y="-180" type="line"/>
      <point x="173" y="705" type="line"/>
      <point x="4" y="705" type="line"/>
      <point x="4" y="668" type="line"/>
      <point x="131" y="668" type="line"/>
      <point x="131" y="-143" type="line"/>
      <point x="4" y="-143" type="line"/>
    </contour>
  </outline>
</glyph>
<glyph name="b" format="2">
  <advance width="583"/>
  <unicode hex="0062"/>
  <anchor x="321" y="0" name="bottom"/>
  <anchor x="310" y="735" name="top"/>
  <outline>
    <contour>
      <point x="308" y="-8" type="curve" smooth="yes"/>
      <point x="442" y="-8"/>
      <point x="529" y="89"/>
      <point x="529" y="250" type="curve" smooth="yes"/>
      <point x="529" y="411"/>
      <point x="443" y="508"/>
      <point x="308" y="508" type="curve" smooth="yes"/>
      <point x="212" y="508"/>
      <point x="142" y="455"/>
      <point x="119" y="369" type="curve"/>
      <point x="130" y="369" type="line"/>
      <point x="130" y="736" type="line"/>
      <point x="88" y="736" type="line"/>
      <point x="88" y="0" type="line"/>
      <point x="130" y="0" type="line"/>
      <point x="130" y="131" type="line"/>
      <point x="119" y="131" type="line"/>
      <point x="142" y="44"/>
      <point x="212" y="-8"/>
    </contour>
    <contour>
      <point x="307" y="31" type="curve" smooth="yes"/>
      <point x="198" y="31"/>
      <point x="129" y="109"/>
      <point x="129" y="250" type="curve" smooth="yes"/>
      <point x="129" y="391"/>
      <point x="198" y="469"/>
      <point x="307" y="469" type="curve" smooth="yes"/>
      <point x="416" y="469"/>
      <point x="486" y="391"/>
      <point x="486" y="250" type="curve" smooth="yes"/>
      <point x="486" y="109"/>
      <point x="416" y="31"/>
    </contour>
  </outline>
</glyph>
<glyph name="e" format="2">
  <advance width="541"/>
  <unicode hex="0065"/>
  <anchor x="285" y="0" name="bottom"/>
  <anchor x="354" y="0" name="ogonek"/>
  <anchor x="285" y="484" name="top"/>
  <outline>
    <contour>
      <point x="294" y="-8" type="curve" smooth="yes"/>
      <point x="367" y="-8"/>
      <point x="440" y="18"/>
      <point x="482" y="64" type="curve"/>
      <point x="461" y="97" type="line"/>
      <point x="410" y="49"/>
      <point x="356" y="31"/>
      <point x="294" y="31" type="curve" smooth="yes"/>
      <point x="170" y="31"/>
      <point x="97" y="107"/>
      <point x="97" y="248" type="curve" smooth="yes"/>
      <point x="97" y="253" type="line" smooth="yes"/>
      <point x="97" y="382"/>
      <point x="166" y="470"/>
      <point x="284" y="470" type="curve" smooth="yes"/>
      <point x="394" y="470"/>
      <point x="451" y="397"/>
      <point x="451" y="277" type="curve"/>
      <point x="468" y="290" type="line"/>
      <point x="81" y="290" type="line"/>
      <point x="81" y="252" type="line"/>
      <point x="490" y="252" type="line"/>
      <point x="490" y="279" type="line" smooth="yes"/>
      <point x="490" y="421"/>
      <point x="414" y="508"/>
      <point x="285" y="508" type="curve" smooth="yes"/>
      <point x="148" y="508"/>
      <point x="54" y="407"/>
      <point x="54" y="248" type="curve" smooth="yes"/>
      <point x="54" y="86"/>
      <point x="147" y="-8"/>
    </contour>
  </outline>
</glyph>
<glyph name="f" format="2">
  <advance width="311"/>
  <unicode hex="0066"/>
  <anchor x="129" y="0" name="bottom"/>
  <anchor x="129" y="670" name="top"/>
  <outline>
    <contour>
      <point x="108" y="0" type="line"/>
      <point x="150" y="0" type="line"/>
      <point x="150" y="464" type="line"/>
      <point x="297" y="464" type="line"/>
      <point x="297" y="500" type="line"/>
      <point x="142" y="500" type="line"/>
      <point x="150" y="486" type="line"/>
      <point x="150" y="571" type="line" smooth="yes"/>
      <point x="150" y="656"/>
      <point x="183" y="701"/>
      <point x="254" y="701" type="curve" smooth="yes"/>
      <point x="279" y="701"/>
      <point x="303" y="694"/>
      <point x="318" y="688" type="curve"/>
      <point x="318" y="728" type="line"/>
      <point x="303" y="734"/>
      <point x="274" y="740"/>
      <point x="252" y="740" type="curve" smooth="yes"/>
      <point x="160" y="740"/>
      <point x="108" y="681"/>
      <point x="108" y="578" type="curve" smooth="yes"/>
      <point x="108" y="489" type="line"/>
      <point x="118" y="500" type="line"/>
      <point x="8" y="500" type="line"/>
      <point x="8" y="464" type="line"/>
      <point x="108" y="464" type="line"/>
    </contour>
  </outline>
</glyph>
<glyph name="g" format="2">
  <advance width="587"/>
  <unicode hex="0067"/>
  <anchor x="296" y="484" name="top"/>
  <outline>
    <contour>
      <point x="298" y="-223" type="curve" smooth="yes"/>
      <point x="431" y="-223"/>
      <point x="500" y="-152"/>
      <point x="500" y="-13" type="curve" smooth="yes"/>
      <point x="500" y="392" type="line" smooth="yes"/>
      <point x="500" y="426"/>
      <point x="504" y="463"/>
      <point x="508" y="500" type="curve"/>
      <point x="467" y="500" type="line"/>
      <point x="458" y="380" type="line"/>
      <point x="469" y="367" type="line"/>
      <point x="448" y="456"/>
      <point x="374" y="508"/>
      <point x="279" y="508" type="curve" smooth="yes"/>
      <point x="141" y="508"/>
      <point x="54" y="412"/>
      <point x="54" y="260" type="curve" smooth="yes"/>
      <point x="54" y="108"/>
      <point x="141" y="11"/>
      <point x="279" y="11" type="curve" smooth="yes"/>
      <point x="374" y="11"/>
      <point x="448" y="63"/>
      <point x="469" y="151" type="curve"/>
      <point x="458" y="151" type="line"/>
      <point x="458" y="-20" type="line" smooth="yes"/>
      <point x="458" y="-126"/>
      <point x="403" y="-184"/>
      <point x="299" y="-184" type="curve" smooth="yes"/>
      <point x="222" y="-184"/>
      <point x="172" y="-167"/>
      <point x="107" y="-119" type="curve"/>
      <point x="87" y="-153" type="line"/>
      <point x="144" y="-200"/>
      <point x="216" y="-223"/>
    </contour>
    <contour>
      <point x="278" y="50" type="curve" smooth="yes"/>
      <point x="167" y="50"/>
      <point x="97" y="128"/>
      <point x="97" y="260" type="curve" smooth="yes"/>
      <point x="97" y="392"/>
      <point x="167" y="469"/>
      <point x="278" y="469" type="curve" smooth="yes"/>
      <point x="388" y="469"/>
      <point x="458" y="392"/>
      <point x="458" y="260" type="curve" smooth="yes"/>
      <point x="458" y="128"/>
      <point x="388" y="50"/>
    </contour>
  </outline>
</glyph>
<glyph name="j" format="2">
  <advance width="218"/>
  <unicode hex="006A"/>
  <anchor x="117" y="0" name="bottom"/>
  <anchor x="117" y="484" name="top"/>
  <outline>
    <contour>
      <point x="9" y="-218" type="curve" smooth="yes"/>
      <point x="93" y="-218"/>
      <point x="138" y="-164"/>
      <point x="138" y="-60" type="curve" smooth="yes"/>
      <point x="138" y="500" type="line"/>
      <point x="96" y="500" type="line"/>
      <point x="96" y="-51" type="line" smooth="yes"/>
      <point x="96" y="-139"/>
      <point x="70" y="-179"/>
      <point x="7" y="-179" type="curve" smooth="yes"/>
      <point x="-10" y="-179"/>
      <point x="-36" y="-173"/>
      <point x="-51" y="-167" type="curve"/>
      <point x="-51" y="-207" type="line"/>
      <point x="-36" y="-213"/>
      <point x="-5" y="-218"/>
    </contour>
    <contour>
      <point x="85" y="631" type="line"/>
      <point x="149" y="631" type="line"/>
      <point x="149" y="694" type="line"/>
      <point x="85" y="694" type="line"/>
    </contour>
  </outline>
</glyph>
<glyph name="o" format="2">
  <advance width="553"/>
  <unicode hex="006F"/>
  <anchor x="277" y="0" name="bottom"/>
  <anchor x="276" y="250" name="center"/>
  <anchor x="332" y="0" name="ogonek"/>
  <anchor x="277" y="484" name="top"/>
  <anchor x="324" y="500" name="topright"/>
  <outline>
    <contour>
      <point x="276" y="-8" type="curve" smooth="yes"/>
      <point x="412" y="-8"/>
      <point x="499" y="90"/>
      <point x="499" y="250" type="curve" smooth="yes"/>
      <point x="499" y="410"/>
      <point x="412" y="508"/>
      <point x="276" y="508" type="curve" smooth="yes"/>
      <point x="140" y="508"/>
      <point x="54" y="410"/>
      <point x="54" y="250" type="curve" smooth="yes"/>
      <point x="54" y="90"/>
      <point x="140" y="-8"/>
    </contour>
    <contour>
      <point x="276" y="31" type="curve" smooth="yes"/>
      <point x="166" y="31"/>
      <point x="97" y="109"/>
      <point x="97" y="250" type="curve" smooth="yes"/>
      <point x="97" y="391"/>
      <point x="166" y="469"/>
      <point x="276" y="469" type="curve" smooth="yes"/>
      <point x="385" y="469"/>
      <point x="456" y="391"/>
      <point x="456" y="250" type="curve" smooth="yes"/>
      <point x="456" y="109"/>
      <point x="385" y="31"/>
    </contour>
  </outline>
</glyph>
<glyph name="p" format="2">
  <advance width="583"/>
  <unicode hex="0070"/>
  <anchor x="291" y="0" name="bottom"/>
  <anchor x="291" y="484" name="top"/>
  <outline>
    <contour>
      <point x="88" y="-216" type="line"/>
      <point x="130" y="-216" type="line"/>
      <point x="130" y="131" type="line"/>
      <point x="119" y="131" type="line"/>
      <point x="141" y="44"/>
      <point x="211" y="-8"/>
      <point x="307" y="-8" type="curve" smooth="yes"/>
      <point x="443" y="-8"/>
      <point x="529" y="89"/>
      <point x="529" y="250" type="curve" smooth="yes"/>
      <point x="529" y="411"/>
      <point x="442" y="508"/>
      <point x="307" y="508" type="curve" smooth="yes"/>
      <point x="211" y="508"/>
      <point x="141" y="456"/>
      <point x="119" y="369" type="curve"/>
      <point x="131" y="369" type="line"/>
      <point x="121" y="500" type="line"/>
      <point x="80" y="500" type="line"/>
      <point x="84" y="463"/>
      <point x="88" y="426"/>
      <point x="88" y="392" type="curve" smooth="yes"/>
    </contour>
    <contour>
      <point x="307" y="31" type="curve" smooth="yes"/>
      <point x="198" y="31"/>
      <point x="129" y="109"/>
      <point x="129" y="250" type="curve" smooth="yes"/>
      <point x="129" y="391"/>
      <point x="198" y="469"/>
      <point x="307" y="469" type="curve" smooth="yes"/>
      <point x="416" y="469"/>
      <point x="486" y="391"/>
      <point x="486" y="250" type="curve" smooth="yes"/>
      <point x="486" y="109"/>
      <point x="416" y="31"/>
    </contour>
  </outline>
</glyph>
<glyph name="s" format="2">
  <advance width="492"/>
  <unicode hex="0073"/>
  <anchor x="244" y="0" name="bottom"/>
  <anchor x="252" y="484" name="top"/>
  <outline>
    <contour>
      <point x="244" y="-8" type="curve" smooth="yes"/>
      <point x="356" y="-8"/>
      <point x="430" y="46"/>
      <point x="430" y="130" type="curve" smooth="yes"/>
      <point x="430" y="197"/>
      <point x="387" y="236"/>
      <point x="296" y="257" type="curve" smooth="yes"/>
      <point x="209" y="277" type="line" smooth="yes"/>
      <point x="146" y="291"/>
      <point x="119" y="320"/>
      <point x="119" y="367" type="curve" smooth="yes"/>
      <point x="119" y="428"/>
      <point x="166" y="469"/>
      <point x="253" y="469" type="curve" smooth="yes"/>
      <point x="310" y="469"/>
      <point x="360" y="448"/>
      <point x="400" y="407" type="curve"/>
      <point x="422" y="440" type="line"/>
      <point x="386" y="483"/>
      <point x="323" y="508"/>
      <point x="253" y="508" type="curve" smooth="yes"/>
      <point x="142" y="508"/>
      <point x="74" y="448"/>
      <point x="74" y="366" type="curve" smooth="yes"/>
      <point x="74" y="300"/>
      <point x="114" y="256"/>
      <point x="200" y="236" type="curve" smooth="yes"/>
      <point x="287" y="217" type="line" smooth="yes"/>
      <point x="357" y="202"/>
      <point x="386" y="175"/>
      <point x="386" y="128" type="curve" smooth="yes"/>
      <point x="386" y="68"/>
      <point x="336" y="31"/>
      <point x="246" y="31" type="curve" smooth="yes"/>
      <point x="183" y="31"/>
      <point x="127" y="49"/>
      <point x="79" y="91" type="curve"/>
      <point x="58" y="58" type="line"/>
      <point x="99" y="16"/>
      <point x="169" y="-8"/>
    </contour>
  </outline>
</glyph>
<glyph name="t" format="2">
  <advance width="324"/>
  <unicode hex="0074"/>
  <anchor x="211" y="0" name="bottom"/>
  <anchor x="157" y="281" name="center"/>
  <anchor x="129" y="646" name="top"/>
  <anchor x="233" y="705" name="topright"/>
  <outline>
    <contour>
      <point x="234" y="-8" type="curve" smooth="yes"/>
      <point x="258" y="-8"/>
      <point x="285" y="-3"/>
      <point x="300" y="4" type="curve"/>
      <point x="300" y="44" type="line"/>
      <point x="285" y="37"/>
      <point x="263" y="31"/>
      <point x="237" y="31" type="curve" smooth="yes"/>
      <point x="175" y="31"/>
      <point x="150" y="69"/>
      <point x="150" y="157" type="curve" smooth="yes"/>
      <point x="150" y="464" type="line"/>
      <point x="302" y="464" type="line"/>
      <point x="302" y="500" type="line"/>
      <point x="150" y="500" type="line"/>
      <point x="150" y="659" type="line"/>
      <point x="108" y="643" type="line"/>
      <point x="108" y="500" type="line"/>
      <point x="8" y="500" type="line"/>
      <point x="8" y="464" type="line"/>
      <point x="108" y="464" type="line"/>
      <point x="108" y="148" type="line" smooth="yes"/>
      <point x="108" y="43"/>
      <point x="153" y="-8"/>
    </contour>
  </outline>
</glyph>
<glyph name="v" format="2">
  <advance width="520"/>
  <unicode hex="0076"/>
  <anchor x="260" y="0" name="bottom"/>
  <anchor x="260" y="484" name="top"/>
  <outline>
    <contour>
      <point x="236" y="0" type="line"/>
      <point x="284" y="0" type="line"/>
      <point x="496" y="500" type="line"/>
      <point x="449" y="500" type="line"/>
      <point x="248" y="16" type="line"/>
      <point x="272" y="16" type="line"/>
      <point x="72" y="500" type="line"/>
      <point x="24" y="500" type="line"/>
    </contour>
  </outline>
</glyph>
<glyph name="w" format="2">
  <advance width="857"/>
  <unicode hex="0077"/>
  <anchor x="428" y="0" name="bottom"/>
  <anchor x="428" y="484" name="top"/>
  <outline>
    <contour>
      <point x="218" y="0" type="line"/>
      <point x="269" y="0" type="line"/>
      <point x="445" y="491" type="line"/>
      <point x="415" y="491" type="line"/>
      <point x="588" y="0" type="line"/>
      <point x="638" y="0" type="line"/>
      <point x="815" y="500" type="line"/>
      <point x="769" y="500" type="line"/>
      <point x="600" y="14" type="line"/>
      <point x="627" y="14" type="line"/>
      <point x="456" y="500" type="line"/>
      <point x="403" y="500" type="line"/>
      <point x="229" y="14" type="line"/>
      <point x="256" y="14" type="line"/>
      <point x="89" y="500" type="line"/>
      <point x="42" y="500" type="line"/>
    </contour>
  </outline>
</glyph>
<glyph name="x" format="2">
  <advance width="522"/>
  <unicode hex="0078"/>
  <anchor x="261" y="0" name="bottom"/>
  <anchor x="261" y="484" name="top"/>
  <outline>
    <contour>
      <point x="30" y="0" type="line"/>
      <point x="82" y="0" type="line"/>
      <point x="269" y="235" type="line"/>
      <point x="253" y="235" type="line"/>
      <point x="438" y="0" type="line"/>
      <point x="492" y="0" type="line"/>
      <point x="279" y="267" type="line"/>
      <point x="279" y="248" type="line"/>
      <point x="480" y="500" type="line"/>
      <point x="428" y="500" type="line"/>
      <point x="254" y="279" type="line"/>
      <point x="269" y="279" type="line"/>
      <point x="94" y="500" type="line"/>
      <point x="41" y="500" type="line"/>
      <point x="246" y="245" type="line"/>
      <point x="246" y="271" type="line"/>
    </contour>
  </outline>
</glyph>
<glyph name="y" format="2">
  <advance width="520"/>
  <unicode hex="0079"/>
  <anchor x="384" y="0" name="bottom"/>
  <anchor x="259" y="484" name="top"/>
  <outline>
    <contour>
      <point x="60" y="-227" type="line"/>
      <point x="154" y="-208"/>
      <point x="215" y="-168"/>
      <point x="263" y="-54" type="curve" smooth="yes"/>
      <point x="496" y="500" type="line"/>
      <point x="448" y="500" type="line"/>
      <point x="250" y="16" type="line"/>
      <point x="273" y="16" type="line"/>
      <point x="72" y="500" type="line"/>
      <point x="24" y="500" type="line"/>
      <point x="242" y="-14" type="line"/>
      <point x="243" y="7" type="line"/>
      <point x="217" y="-53" type="line" smooth="yes"/>
      <point x="183" y="-132"/>
      <point x="143" y="-166"/>
      <point x="50" y="-188" type="curve"/>
    </contour>
  </outline>
</glyph>
<glyph name="braceleft" format="2">
  <advance width="322"/>
  <unicode hex="007B"/>
  <outline>
    <contour>
      <point x="233" y="-180" type="curve" smooth="yes"/>
      <point x="318" y="-180" type="line"/>
      <point x="318" y="-143" type="line"/>
      <point x="237" y="-143" type="line" smooth="yes"/>
      <point x="206" y="-143"/>
      <point x="191" y="-127"/>
      <point x="191" y="-96" type="curve" smooth="yes"/>
      <point x="191" y="165" type="line" smooth="yes"/>
      <point x="191" y="224"/>
      <point x="154" y="265"/>
      <point x="102" y="265" type="curve"/>
      <point x="102" y="261" type="line"/>
      <point x="154" y="261"/>
      <point x="191" y="302"/>
      <point x="191" y="361" type="curve" smooth="yes"/>
      <point x="191" y="621" type="line" smooth="yes"/>
      <point x="191" y="652"/>
      <point x="206" y="668"/>
      <point x="237" y="668" type="curve" smooth="yes"/>
      <point x="318" y="668" type="line"/>
      <point x="318" y="705" type="line"/>
      <point x="233" y="705" type="line" smooth="yes"/>
      <point x="178" y="705"/>
      <point x="149" y="676"/>
      <point x="149" y="619" type="curve" smooth="yes"/>
      <point x="149" y="364" type="line" smooth="yes"/>
      <point x="149" y="307"/>
      <point x="126" y="285"/>
      <point x="70" y="282" type="curve" smooth="yes"/>
      <point x="50" y="281" type="line"/>
      <point x="50" y="245" type="line"/>
      <point x="70" y="244" type="line" smooth="yes"/>
      <point x="127" y="241"/>
      <point x="149" y="218"/>
      <point x="149" y="162" type="curve" smooth="yes"/>
      <point x="149" y="-94" type="line" smooth="yes"/>
      <point x="149" y="-151"/>
      <point x="178" y="-180"/>
    </contour>
  </outline>
</glyph>
<glyph name="braceright" format="2">
  <advance width="322"/>
  <unicode hex="007D"/>
  <outline>
    <contour>
      <point x="4" y="-180" type="line"/>
      <point x="89" y="-180" type="line" smooth="yes"/>
      <point x="144" y="-180"/>
      <point x="173" y="-151"/>
      <point x="173" y="-94" type="curve" smooth="yes"/>
      <point x="173" y="161" type="line" smooth="yes"/>
      <point x="173" y="218"/>
      <point x="196" y="240"/>
      <point x="252" y="243" type="curve" smooth="yes"/>
      <point x="272" y="244" type="line"/>
      <point x="272" y="280" type="line"/>
      <point x="252" y="281" type="line" smooth="yes"/>
      <point x="195" y="284"/>
      <point x="173" y="307"/>
      <point x="173" y="363" type="curve" smooth="yes"/>
      <point x="173" y="619" type="line" smooth="yes"/>
      <point x="173" y="676"/>
      <point x="144" y="705"/>
      <point x="89" y="705" type="curve" smooth="yes"/>
      <point x="4" y="705" type="line"/>
      <point x="4" y="668" type="line"/>
      <point x="85" y="668" type="line" smooth="yes"/>
      <point x="116" y="668"/>
      <point x="131" y="652"/>
      <point x="131" y="621" type="curve" smooth="yes"/>
      <point x="131" y="360" type="line" smooth="yes"/>
      <point x="131" y="301"/>
      <point x="168" y="260"/>
      <point x="220" y="260" type="curve"/>
      <point x="220" y="264" type="line"/>
      <point x="168" y="264"/>
      <point x="131" y="223"/>
      <point x="131" y="164" type="curve" smooth="yes"/>
      <point x="131" y="-96" type="line" smooth="yes"/>
      <point x="131" y="-127"/>
      <point x="116" y="-143"/>
      <point x="85" y="-143" type="curve" smooth="yes"/>
      <point x="4" y="-143" type="line"/>
    </contour>
  </outline>
</glyph>
<glyph name="currency" format="2">
  <advance width="600"/>
  <unicode hex="00A4"/>
  <outline>
    <contour>
      <point x="74" y="-22" type="line"/>
      <point x="148" y="53" type="line"/>
      <point x="190" y="18"/>
      <point x="243" y="-3"/>
      <point x="301" y="-3" type="curve" smooth="yes"/>
      <point x="358" y="-3"/>
      <point x="410" y="17"/>
      <point x="451" y="52" type="curve"/>
      <point x="523" y="-22" type="line"/>
      <point x="559" y="14" type="line"/>
      <point x="486" y="88" type="line"/>
      <point x="521" y="131"/>
      <point x="541" y="185"/>
      <point x="541" y="245" type="curve" smooth="yes"/>
      <point x="541" y="305"/>
      <point x="521" y="359"/>
      <point x="486" y="403" type="curve"/>
      <point x="559" y="476" type="line"/>
      <point x="523" y="512" type="line"/>
      <point x="452" y="438" type="line"/>
      <point x="410" y="473"/>
      <point x="358" y="493"/>
      <point x="301" y="493" type="curve" smooth="yes"/>
      <point x="243" y="493"/>
      <point x="189" y="472"/>
      <point x="148" y="436" type="curve"/>
      <point x="74" y="512" type="line"/>
      <point x="39" y="476" type="line"/>
      <point x="113" y="400" type="line"/>
      <point x="80" y="358"/>
      <point x="61" y="303"/>
      <point x="61" y="245" type="curve" smooth="yes"/>
      <point x="61" y="187"/>
      <point x="81" y="132"/>
      <point x="113" y="90" type="curve"/>
      <point x="39" y="14" type="line"/>
    </contour>
    <contour>
      <point x="300" y="40" type="curve" smooth="yes"/>
      <point x="194" y="40"/>
      <point x="108" y="131"/>
      <point x="108" y="245" type="curve" smooth="yes"/>
      <point x="108" y="359"/>
      <point x="194" y="449"/>
      <point x="300" y="450" type="curve" smooth="yes"/>
      <point x="407" y="451"/>
      <point x="492" y="359"/>
      <point x="492" y="245" type="curve" smooth="yes"/>
      <point x="492" y="131"/>
      <point x="407" y="40"/>
    </contour>
  </outline>
</glyph>
<glyph name="copyright" format="2">
  <advance width="815"/>
  <unicode hex="00A9"/>
  <outline>
    <contour>
      <point x="408" y="-8" type="curve" smooth="yes"/>
      <point x="612" y="-8"/>
      <point x="768" y="149"/>
      <point x="768" y="353" type="curve" smooth="yes"/>
      <point x="768" y="557"/>
      <point x="612" y="713"/>
      <point x="408" y="713" type="curve" smooth="yes"/>
      <point x="203" y="713"/>
      <point x="47" y="557"/>
      <point x="47" y="353" type="curve" smooth="yes"/>
      <point x="47" y="149"/>
      <point x="204" y="-8"/>
    </contour>
    <contour>
      <point x="417" y="137" type="curve" smooth="yes"/>
      <point x="468" y="137"/>
      <point x="524" y="159"/>
      <point x="558" y="194" type="curve"/>
      <point x="540" y="227" type="line"/>
      <point x="501" y="190"/>
      <point x="456" y="175"/>
      <point x="416" y="175" type="curve" smooth="yes"/>
      <point x="317" y="175"/>
      <point x="258" y="245"/>
      <point x="258" y="355" type="curve" smooth="yes"/>
      <point x="258" y="466"/>
      <point x="317" y="530"/>
      <point x="416" y="530" type="curve" smooth="yes"/>
      <point x="456" y="530"/>
      <point x="501" y="516"/>
      <point x="540" y="479" type="curve"/>
      <point x="558" y="511" type="line"/>
      <point x="524" y="546"/>
      <point x="470" y="568"/>
      <point x="417" y="568" type="curve" smooth="yes"/>
      <point x="292" y="568"/>
      <point x="217" y="487"/>
      <point x="217" y="356" type="curve" smooth="yes"/>
      <point x="217" y="225"/>
      <point x="292" y="137"/>
    </contour>
    <contour>
      <point x="408" y="28" type="curve" smooth="yes"/>
      <point x="225" y="28"/>
      <point x="84" y="169"/>
      <point x="84" y="353" type="curve" smooth="yes"/>
      <point x="84" y="537"/>
      <point x="225" y="677"/>
      <point x="408" y="677" type="curve" smooth="yes"/>
      <point x="590" y="677"/>
      <point x="731" y="537"/>
      <point x="731" y="353" type="curve" smooth="yes"/>
      <point x="731" y="169"/>
      <point x="590" y="28"/>
    </contour>
  </outline>
</glyph>
<glyph name="paragraph" format="2">
  <advance width="570"/>
  <unicode hex="00B6"/>
  <outline>
    <contour>
      <point x="246" y="-180" type="line"/>
      <point x="288" y="-180" type="line"/>
      <point x="288" y="667" type="line"/>
      <point x="431" y="667" type="line"/>
      <point x="431" y="-180" type="line"/>
      <point x="473" y="-180" type="line"/>
      <point x="473" y="705" type="line"/>
      <point x="247" y="705" type="line" smooth="yes"/>
      <point x="128" y="705"/>
      <point x="53" y="627"/>
      <point x="53" y="520" type="curve" smooth="yes"/>
      <point x="53" y="413"/>
      <point x="128" y="335"/>
      <point x="246" y="335" type="curve"/>
    </contour>
  </outline>
</glyph>
<glyph name="ordmasculine" format="2">
  <advance width="328"/>
  <unicode hex="00BA"/>
  <outline>
    <contour>
      <point x="164" y="413" type="curve" smooth="yes"/>
      <point x="243" y="413"/>
      <point x="301" y="472"/>
      <point x="301" y="563" type="curve" smooth="yes"/>
      <point x="301" y="654"/>
      <point x="243" y="713"/>
      <point x="164" y="713" type="curve" smooth="yes"/>
      <point x="85" y="713"/>
      <point x="27" y="654"/>
      <point x="27" y="563" type="curve" smooth="yes"/>
      <point x="27" y="472"/>
      <point x="85" y="413"/>
    </contour>
    <contour>
      <point x="164" y="444" type="curve" smooth="yes"/>
      <point x="102" y="444"/>
      <point x="63" y="486"/>
      <point x="63" y="563" type="curve" smooth="yes"/>
      <point x="63" y="640"/>
      <point x="102" y="682"/>
      <point x="164" y="682" type="curve" smooth="yes"/>
      <point x="226" y="682"/>
      <point x="265" y="640"/>
      <point x="265" y="563" type="curve" smooth="yes"/>
      <point x="265" y="486"/>
      <point x="226" y="444"/>
    </contour>
  </outline>
</glyph>
<glyph name="questiondown" format="2">
  <advance width="433"/>
  <unicode hex="00BF"/>
  <outline>
    <contour>
      <point x="219" y="-214" type="curve" smooth="yes"/>
      <point x="268" y="-214"/>
      <point x="316" y="-203"/>
      <point x="357" y="-184" type="curve"/>
      <point x="357" y="-138" type="line"/>
      <point x="315" y="-161"/>
      <point x="270" y="-173"/>
      <point x="218" y="-173" type="curve" smooth="yes"/>
      <point x="134" y="-173"/>
      <point x="82" y="-132"/>
      <point x="82" y="-63" type="curve" smooth="yes"/>
      <point x="82" y="-9"/>
      <point x="103" y="35"/>
      <point x="163" y="103" type="curve" smooth="yes"/>
      <point x="237" y="187"/>
      <point x="260" y="246"/>
      <point x="260" y="317" type="curve" smooth="yes"/>
      <point x="260" y="337" type="line"/>
      <point x="230" y="337" type="line"/>
      <point x="228" y="315" type="line" smooth="yes"/>
      <point x="222" y="254"/>
      <point x="198" y="204"/>
      <point x="132" y="128" type="curve" smooth="yes"/>
      <point x="62" y="48"/>
      <point x="38" y="1"/>
      <point x="38" y="-63" type="curve" smooth="yes"/>
      <point x="38" y="-154"/>
      <point x="110" y="-214"/>
    </contour>
    <contour>
      <point x="280" y="499" type="line"/>
      <point x="211" y="499" type="line"/>
      <point x="211" y="429" type="line"/>
      <point x="280" y="429" type="line"/>
    </contour>
  </outline>
</glyph>
<glyph name="Thorn" format="2">
  <advance width="638"/>
  <unicode hex="00DE"/>
  <anchor x="314" y="0" name="bottom"/>
  <anchor x="314" y="705" name="top"/>
  <outline>
    <contour>
      <point x="97" y="0" type="line"/>
      <point x="139" y="0" type="line"/>
      <point x="139" y="171" type="line"/>
      <point x="360" y="171" type="line" smooth="yes"/>
      <point x="502" y="171"/>
      <point x="585" y="243"/>
      <point x="585" y="365" type="curve" smooth="yes"/>
      <point x="585" y="487"/>
      <point x="502" y="559"/>
      <point x="360" y="559" type="curve" smooth="yes"/>
      <point x="139" y="559" type="line"/>
      <point x="139" y="705" type="line"/>
      <point x="97" y="705" type="line"/>
    </contour>
    <contour>
      <point x="139" y="210" type="line"/>
      <point x="139" y="520" type="line"/>
      <point x="359" y="520" type="line" smooth="yes"/>
      <point x="477" y="520"/>
      <point x="540" y="464"/>
      <point x="540" y="365" type="curve" smooth="yes"/>
      <point x="540" y="266"/>
      <point x="477" y="210"/>
      <point x="359" y="210" type="curve" smooth="yes"/>
    </contour>
  </outline>
</glyph>
<glyph name="germandbls" format="2">
  <advance width="599"/>
  <unicode hex="00DF"/>
  <outline>
    <contour>
      <point x="88" y="0" type="line"/>
      <point x="130" y="0" type="line"/>
      <point x="130" y="512" type="line" smooth="yes"/>
      <point x="130" y="637"/>
      <point x="181" y="701"/>
      <point x="301" y="701" type="curve" smooth="yes"/>
      <point x="389" y="701"/>
      <point x="437" y="656"/>
      <point x="437" y="585" type="curve" smooth="yes"/>
      <point x="437" y="502"/>
      <point x="396" y="440"/>
      <point x="257" y="384" type="curve"/>
      <point x="257" y="346" type="line"/>
      <point x="464" y="290"/>
      <point x="518" y="230"/>
      <point x="518" y="151" type="curve" smooth="yes"/>
      <point x="518" y="73"/>
      <point x="467" y="31"/>
      <point x="382" y="31" type="curve" smooth="yes"/>
      <point x="322" y="31"/>
      <point x="273" y="48"/>
      <point x="223" y="91" type="curve"/>
      <point x="203" y="57" type="line"/>
      <point x="245" y="15"/>
      <point x="307" y="-8"/>
      <point x="379" y="-8" type="curve" smooth="yes"/>
      <point x="491" y="-8"/>
      <point x="562" y="53"/>
      <point x="562" y="152" type="curve" smooth="yes"/>
      <point x="562" y="247"/>
      <point x="494" y="321"/>
      <point x="298" y="374" type="curve"/>
      <point x="298" y="365" type="line"/>
      <point x="432" y="418"/>
      <point x="477" y="490"/>
      <point x="477" y="583" type="curve" smooth="yes"/>
      <point x="477" y="680"/>
      <point x="412" y="740"/>
      <point x="300" y="740" type="curve" smooth="yes"/>
      <point x="157" y="740"/>
      <point x="88" y="658"/>
      <point x="88" y="510" type="curve" smooth="yes"/>
    </contour>
  </outline>
</glyph>
<glyph name="eth" format="2">
  <advance width="556"/>
  <unicode hex="00F0"/>
  <outline>
    <contour>
      <point x="277" y="-8" type="curve" smooth="yes"/>
      <point x="423" y="-8"/>
      <point x="502" y="90"/>
      <point x="502" y="276" type="curve" smooth="yes"/>
      <point x="502" y="429"/>
      <point x="453" y="556"/>
      <point x="352" y="643" type="curve"/>
      <point x="351" y="632" type="line"/>
      <point x="448" y="672" type="line"/>
      <point x="435" y="705" type="line"/>
      <point x="322" y="659" type="line"/>
      <point x="336" y="656" type="line"/>
      <point x="289" y="692"/>
      <point x="232" y="721"/>
      <point x="165" y="741" type="curve"/>
      <point x="153" y="708" type="line"/>
      <point x="209" y="692"/>
      <point x="258" y="668"/>
      <point x="298" y="638" type="curve"/>
      <point x="299" y="650" type="line"/>
      <point x="123" y="578" type="line"/>
      <point x="136" y="545" type="line"/>
      <point x="330" y="624" type="line"/>
      <point x="313" y="627" type="line"/>
      <point x="413" y="545"/>
      <point x="461" y="424"/>
      <point x="460" y="293" type="curve"/>
      <point x="479" y="293" type="line"/>
      <point x="454" y="406"/>
      <point x="386" y="463"/>
      <point x="280" y="463" type="curve" smooth="yes"/>
      <point x="143" y="463"/>
      <point x="54" y="370"/>
      <point x="54" y="227" type="curve" smooth="yes"/>
      <point x="54" y="84"/>
      <point x="142" y="-8"/>
    </contour>
    <contour>
      <point x="276" y="31" type="curve" smooth="yes"/>
      <point x="164" y="31"/>
      <point x="97" y="103"/>
      <point x="97" y="227" type="curve" smooth="yes"/>
      <point x="97" y="350"/>
      <point x="166" y="423"/>
      <point x="277" y="423" type="curve" smooth="yes"/>
      <point x="388" y="423"/>
      <point x="457" y="349"/>
      <point x="457" y="227" type="curve" smooth="yes"/>
      <point x="457" y="105"/>
      <point x="387" y="31"/>
    </contour>
  </outline>
</glyph>
<glyph name="dcroat" format="2">
  <advance width="583"/>
  <unicode hex="0111"/>
  <outline>
    <contour>
      <point x="275" y="-8" type="curve" smooth="yes"/>
      <point x="369" y="-8"/>
      <point x="441" y="44"/>
      <point x="464" y="131" type="curve"/>
      <point x="453" y="131" type="line"/>
      <point x="453" y="0" type="line"/>
      <point x="495" y="0" type="line"/>
      <point x="495" y="594" type="line"/>
      <point x="593" y="594" type="line"/>
      <point x="593" y="631" type="line"/>
      <point x="495" y="631" type="line"/>
      <point x="495" y="736" type="line"/>
      <point x="453" y="736" type="line"/>
      <point x="453" y="631" type="line"/>
      <point x="257" y="631" type="line"/>
      <point x="257" y="594" type="line"/>
      <point x="453" y="594" type="line"/>
      <point x="453" y="369" type="line"/>
      <point x="464" y="369" type="line"/>
      <point x="441" y="456"/>
      <point x="369" y="508"/>
      <point x="275" y="508" type="curve" smooth="yes"/>
      <point x="140" y="508"/>
      <point x="54" y="411"/>
      <point x="54" y="250" type="curve" smooth="yes"/>
      <point x="54" y="89"/>
      <point x="140" y="-8"/>
    </contour>
    <contour>
      <point x="276" y="31" type="curve" smooth="yes"/>
      <point x="166" y="31"/>
      <point x="97" y="109"/>
      <point x="97" y="250" type="curve" smooth="yes"/>
      <point x="97" y="391"/>
      <point x="166" y="469"/>
      <point x="276" y="469" type="curve" smooth="yes"/>
      <point x="383" y="469"/>
      <point x="454" y="391"/>
      <point x="454" y="250" type="curve" smooth="yes"/>
      <point x="454" y="109"/>
      <point x="383" y="31"/>
    </contour>
  </outline>
</glyph>
<glyph name="Hbar" format="2">
  <advance width="767"/>
  <unicode hex="0126"/>
  <outline>
    <contour>
      <point x="102" y="0" type="line"/>
      <point x="144" y="0" type="line"/>
      <point x="144" y="338" type="line"/>
      <point x="623" y="338" type="line"/>
      <point x="623" y="0" type="line"/>
      <point x="665" y="0" type="line"/>
      <point x="665" y="527" type="line"/>
      <point x="763" y="527" type="line"/>
      <point x="763" y="565" type="line"/>
      <point x="665" y="565" type="line"/>
      <point x="665" y="705" type="line"/>
      <point x="623" y="705" type="line"/>
      <point x="623" y="565" type="line"/>
      <point x="144" y="565" type="line"/>
      <point x="144" y="705" type="line"/>
      <point x="102" y="705" type="line"/>
      <point x="102" y="565" type="line"/>
      <point x="4" y="565" type="line"/>
      <point x="4" y="527" type="line"/>
      <point x="102" y="527" type="line"/>
    </contour>
    <contour>
      <point x="144" y="377" type="line"/>
      <point x="144" y="527" type="line"/>
      <point x="623" y="527" type="line"/>
      <point x="623" y="377" type="line"/>
    </contour>
  </outline>
</glyph>
<glyph name="Eng" format="2">
  <advance width="739"/>
  <unicode hex="014A"/>
  <anchor x="370" y="0" name="bottom"/>
  <anchor x="370" y="705" name="top"/>
  <outline>
    <contour>
      <point x="451" y="-193" type="line"/>
      <point x="496" y="-190" type="line" smooth="yes"/>
      <point x="588" y="-184"/>
      <point x="642" y="-124"/>
      <point x="642" y="-21" type="curve" smooth="yes"/>
      <point x="642" y="705" type="line"/>
      <point x="603" y="705" type="line"/>
      <point x="603" y="42" type="line"/>
      <point x="624" y="42" type="line"/>
      <point x="133" y="705" type="line"/>
      <point x="97" y="705" type="line"/>
      <point x="97" y="0" type="line"/>
      <point x="136" y="0" type="line"/>
      <point x="136" y="663" type="line"/>
      <point x="116" y="663" type="line"/>
      <point x="607" y="0" type="line"/>
      <point x="603" y="26" type="line"/>
      <point x="603" y="-22" type="line" smooth="yes"/>
      <point x="603" y="-102"/>
      <point x="563" y="-147"/>
      <point x="491" y="-152" type="curve" smooth="yes"/>
      <point x="448" y="-155" type="line"/>
    </contour>
  </outline>
</glyph>
<glyph name="eng" format="2">
  <advance width="570"/>
  <unicode hex="014B"/>
  <outline>
    <contour>
      <point x="88" y="0" type="line"/>
      <point x="130" y="0" type="line"/>
      <point x="130" y="288" type="line" smooth="yes"/>
      <point x="130" y="398"/>
      <point x="199" y="469"/>
      <point x="307" y="469" type="curve" smooth="yes"/>
      <point x="401" y="469"/>
      <point x="443" y="422"/>
      <point x="443" y="314" type="curve" smooth="yes"/>
      <point x="443" y="-45" type="line" smooth="yes"/>
      <point x="443" y="-133"/>
      <point x="411" y="-179"/>
      <point x="339" y="-179" type="curve" smooth="yes"/>
      <point x="314" y="-179"/>
      <point x="297" y="-173"/>
      <point x="282" y="-167" type="curve"/>
      <point x="282" y="-207" type="line"/>
      <point x="297" y="-213"/>
      <point x="320" y="-218"/>
      <point x="342" y="-218" type="curve" smooth="yes"/>
      <point x="434" y="-218"/>
      <point x="485" y="-158"/>
      <point x="485" y="-54" type="curve" smooth="yes"/>
      <point x="485" y="318" type="line" smooth="yes"/>
      <point x="485" y="449"/>
      <point x="424" y="508"/>
      <point x="306" y="508" type="curve" smooth="yes"/>
      <point x="216" y="508"/>
      <point x="146" y="464"/>
      <point x="118" y="380" type="curve"/>
      <point x="130" y="380" type="line"/>
      <point x="121" y="500" type="line"/>
      <point x="80" y="500" type="line"/>
      <point x="84" y="463"/>
      <point x="88" y="426"/>
      <point x="88" y="392" type="curve" smooth="yes"/>
    </contour>
  </outline>
</glyph>
<glyph name="oe" format="2">
  <advance width="936"/>
  <unicode hex="0153"/>
  <anchor x="479" y="0" name="bottom"/>
  <anchor x="479" y="484" name="top"/>
  <outline>
    <contour>
      <point x="277" y="-8" type="curve" smooth="yes"/>
      <point x="384" y="-8"/>
      <point x="461" y="54"/>
      <point x="487" y="166" type="curve"/>
      <point x="467" y="166" type="line"/>
      <point x="493" y="53"/>
      <point x="573" y="-8"/>
      <point x="694" y="-8" type="curve" smooth="yes"/>
      <point x="764" y="-8"/>
      <point x="836" y="18"/>
      <point x="877" y="64" type="curve"/>
      <point x="856" y="97" type="line"/>
      <point x="805" y="51"/>
      <point x="752" y="31"/>
      <point x="693" y="31" type="curve" smooth="yes"/>
      <point x="570" y="31"/>
      <point x="501" y="108"/>
      <point x="501" y="248" type="curve" smooth="yes"/>
      <point x="501" y="254" type="line" smooth="yes"/>
      <point x="501" y="382"/>
      <point x="568" y="470"/>
      <point x="682" y="470" type="curve" smooth="yes"/>
      <point x="789" y="470"/>
      <point x="846" y="397"/>
      <point x="846" y="280" type="curve"/>
      <point x="863" y="290" type="line"/>
      <point x="481" y="290" type="line"/>
      <point x="481" y="252" type="line"/>
      <point x="885" y="252" type="line"/>
      <point x="885" y="279" type="line" smooth="yes"/>
      <point x="885" y="420"/>
      <point x="810" y="508"/>
      <point x="685" y="508" type="curve" smooth="yes"/>
      <point x="578" y="508"/>
      <point x="495" y="444"/>
      <point x="468" y="331" type="curve"/>
      <point x="489" y="331" type="line"/>
      <point x="464" y="444"/>
      <point x="384" y="508"/>
      <point x="277" y="508" type="curve" smooth="yes"/>
      <point x="141" y="508"/>
      <point x="54" y="410"/>
      <point x="54" y="250" type="curve" smooth="yes"/>
      <point x="54" y="90"/>
      <point x="141" y="-8"/>
    </contour>
    <contour>
      <point x="277" y="31" type="curve" smooth="yes"/>
      <point x="167" y="31"/>
      <point x="97" y="109"/>
      <point x="97" y="250" type="curve" smooth="yes"/>
      <point x="97" y="391"/>
      <point x="167" y="469"/>
      <point x="277" y="469" type="curve" smooth="yes"/>
      <point x="386" y="469"/>
      <point x="457" y="391"/>
      <point x="457" y="250" type="curve" smooth="yes"/>
      <point x="457" y="109"/>
      <point x="386" y="31"/>
    </contour>
  </outline>
</glyph>
<glyph name="yhook" format="2">
  <advance width="554"/>
  <unicode hex="01B4"/>
  <outline>
    <contour>
      <point x="60" y="-227" type="line"/>
      <point x="154" y="-208"/>
      <point x="215" y="-168"/>
      <point x="263" y="-54" type="curve" smooth="yes"/>
      <point x="446" y="381" type="line" smooth="yes"/>
      <point x="476" y="452"/>
      <point x="499" y="470"/>
      <point x="546" y="470" type="curve" smooth="yes"/>
      <point x="557" y="470"/>
      <point x="572" y="468"/>
      <point x="584" y="464" type="curve"/>
      <point x="590" y="501" type="line"/>
      <point x="574" y="506"/>
      <point x="561" y="508"/>
      <point x="540" y="508" type="curve" smooth="yes"/>
      <point x="476" y="508"/>
      <point x="439" y="479"/>
      <point x="409" y="406" type="curve" smooth="yes"/>
      <point x="250" y="16" type="line"/>
      <point x="273" y="16" type="line"/>
      <point x="72" y="500" type="line"/>
      <point x="24" y="500" type="line"/>
      <point x="242" y="-14" type="line"/>
      <point x="243" y="7" type="line"/>
      <point x="217" y="-53" type="line" smooth="yes"/>
      <point x="183" y="-132"/>
      <point x="143" y="-166"/>
      <point x="50" y="-188" type="curve"/>
    </contour>
  </outline>
</glyph>
<glyph name="gstroke" format="2">
  <advance width="587"/>
  <unicode hex="01E5"/>
  <outline>
    <contour>
      <point x="298" y="-223" type="curve" smooth="yes"/>
      <point x="407" y="-223"/>
      <point x="474" y="-175"/>
      <point x="493" y="-80" type="curve"/>
      <point x="485" y="-87" type="line"/>
      <point x="577" y="-87" type="line"/>
      <point x="577" y="-51" type="line"/>
      <point x="489.992" y="-51" type="line"/>
      <point x="496" y="-59" type="line"/>
      <point x="498" y="-45"/>
      <point x="499" y="-29"/>
      <point x="499" y="-13" type="curve" smooth="yes"/>
      <point x="495" y="392" type="line"/>
      <point x="495" y="426"/>
      <point x="499" y="463"/>
      <point x="503" y="500" type="curve"/>
      <point x="462" y="500" type="line"/>
      <point x="452" y="367" type="line"/>
      <point x="469" y="367" type="line"/>
      <point x="448" y="456"/>
      <point x="374" y="508"/>
      <point x="279" y="508" type="curve" smooth="yes"/>
      <point x="141" y="508"/>
      <point x="54" y="412"/>
      <point x="54" y="260" type="curve" smooth="yes"/>
      <point x="54" y="108"/>
      <point x="141" y="11"/>
      <point x="279" y="11" type="curve" smooth="yes"/>
      <point x="374" y="11"/>
      <point x="448" y="63"/>
      <point x="469" y="151" type="curve"/>
      <point x="458" y="151" type="line"/>
      <point x="458" y="-20" type="line" smooth="yes"/>
      <point x="458" y="-33"/>
      <point x="457" y="-45"/>
      <point x="456" y="-57" type="curve"/>
      <point x="464" y="-51" type="line"/>
      <point x="325" y="-51" type="line"/>
      <point x="325" y="-87" type="line"/>
      <point x="459" y="-87" type="line"/>
      <point x="451" y="-79" type="line"/>
      <point x="433" y="-147"/>
      <point x="382" y="-184"/>
      <point x="299" y="-184" type="curve" smooth="yes"/>
      <point x="222" y="-184"/>
      <point x="172" y="-167"/>
      <point x="107" y="-119" type="curve"/>
      <point x="87" y="-153" type="line"/>
      <point x="144" y="-200"/>
      <point x="216" y="-223"/>
    </contour>
    <contour>
      <point x="278" y="50" type="curve" smooth="yes"/>
      <point x="167" y="50"/>
      <point x="97" y="128"/>
      <point x="97" y="260" type="curve" smooth="yes"/>
      <point x="97" y="392"/>
      <point x="167" y="469"/>
      <point x="278" y="469" type="curve" smooth="yes"/>
      <point x="388" y="469"/>
      <point x="458" y="392"/>
      <point x="458" y="260" type="curve" smooth="yes"/>
      <point x="458" y="128"/>
      <point x="388" y="50"/>
    </contour>
  </outline>
</glyph>
<glyph name="bhook" format="2">
  <advance width="583"/>
  <unicode hex="0253"/>
  <outline>
    <contour>
      <point x="309" y="-8" type="curve" smooth="yes"/>
      <point x="443" y="-8"/>
      <point x="529" y="89"/>
      <point x="529" y="250" type="curve" smooth="yes"/>
      <point x="529" y="411"/>
      <point x="444" y="508"/>
      <point x="309" y="508" type="curve" smooth="yes"/>
      <point x="213" y="508"/>
      <point x="142" y="455"/>
      <point x="119" y="369" type="curve"/>
      <point x="130" y="369" type="line"/>
      <point x="130" y="596" type="line" smooth="yes"/>
      <point x="130" y="667"/>
      <point x="166" y="706"/>
      <point x="236" y="706" type="curve" smooth="yes"/>
      <point x="250" y="706"/>
      <point x="258" y="705"/>
      <point x="276" y="700" type="curve"/>
      <point x="282" y="737" type="line"/>
      <point x="267" y="742"/>
      <point x="253" y="744"/>
      <point x="234" y="744" type="curve" smooth="yes"/>
      <point x="140" y="744"/>
      <point x="88" y="692"/>
      <point x="88" y="594" type="curve" smooth="yes"/>
      <point x="88" y="0" type="line"/>
      <point x="130" y="0" type="line"/>
      <point x="130" y="131" type="line"/>
      <point x="119" y="131" type="line"/>
      <point x="142" y="44"/>
      <point x="213" y="-8"/>
    </contour>
    <contour>
      <point x="308" y="31" type="curve" smooth="yes"/>
      <point x="199" y="31"/>
      <point x="129" y="109"/>
      <point x="129" y="250" type="curve" smooth="yes"/>
      <point x="129" y="391"/>
      <point x="199" y="469"/>
      <point x="308" y="469" type="curve" smooth="yes"/>
      <point x="417" y="469"/>
      <point x="486" y="391"/>
      <point x="486" y="250" type="curve" smooth="yes"/>
      <point x="486" y="109"/>
      <point x="417" y="31"/>
    </contour>
  </outline>
</glyph>
<glyph name="schwa" format="2">
  <advance width="541"/>
  <unicode hex="0259"/>
  <outline>
    <contour>
      <point x="256" y="-8" type="curve" smooth="yes"/>
      <point x="393" y="-8"/>
      <point x="487" y="93"/>
      <point x="487" y="252" type="curve" smooth="yes"/>
      <point x="487" y="414"/>
      <point x="394" y="508"/>
      <point x="247" y="508" type="curve" smooth="yes"/>
      <point x="174" y="508"/>
      <point x="101" y="482"/>
      <point x="59" y="436" type="curve"/>
      <point x="80" y="403" type="line"/>
      <point x="131" y="451"/>
      <point x="185" y="469"/>
      <point x="247" y="469" type="curve" smooth="yes"/>
      <point x="371" y="469"/>
      <point x="444" y="393"/>
      <point x="444" y="252" type="curve" smooth="yes"/>
      <point x="444" y="247" type="line" smooth="yes"/>
      <point x="444" y="118"/>
      <point x="375" y="30"/>
      <point x="257" y="30" type="curve" smooth="yes"/>
      <point x="147" y="30"/>
      <point x="90" y="103"/>
      <point x="90" y="223" type="curve"/>
      <point x="73" y="210" type="line"/>
      <point x="460" y="210" type="line"/>
      <point x="460" y="248" type="line"/>
      <point x="51" y="248" type="line"/>
      <point x="51" y="221" type="line" smooth="yes"/>
      <point x="51" y="79"/>
      <point x="127" y="-8"/>
    </contour>
  </outline>
</glyph>
<glyph name="ringhalfright" format="2">
  <advance width="500"/>
  <unicode hex="02BE"/>
  <anchor x="250" y="484" name="_top"/>
  <anchor x="250" y="685" name="top"/>
  <outline>
    <contour>
      <point x="250" y="556" type="line"/>
      <point x="306" y="556"/>
      <point x="347" y="597"/>
      <point x="347" y="650" type="curve" smooth="yes"/>
      <point x="347" y="703"/>
      <point x="306" y="745"/>
      <point x="250" y="745" type="curve"/>
      <point x="250" y="709" type="line"/>
      <point x="284" y="709"/>
      <point x="307" y="683"/>
      <point x="307" y="650" type="curve" smooth="yes"/>
      <point x="307" y="618"/>
      <point x="284" y="591"/>
      <point x="250" y="591" type="curve"/>
    </contour>
  </outline>
</glyph>
<glyph name="secondtonechinese" format="2">
  <advance width="500"/>
  <unicode hex="02CA"/>
  <anchor x="250" y="484" name="_top"/>
  <anchor x="250" y="685" name="top"/>
  <outline>
    <contour>
      <point x="232" y="549" type="line"/>
      <point x="268" y="549" type="line"/>
      <point x="390" y="749" type="line"/>
      <point x="336" y="749" type="line"/>
    </contour>
  </outline>
</glyph>
<glyph name="ringcomb" format="2">
  <unicode hex="030A"/>
  <anchor x="0" y="484" name="_top"/>
  <anchor x="0" y="685" name="top"/>
  <outline>
    <contour>
      <point x="0" y="547" type="curve" smooth="yes"/>
      <point x="63" y="547"/>
      <point x="112" y="596"/>
      <point x="112" y="657" type="curve" smooth="yes"/>
      <point x="112" y="718"/>
      <point x="63" y="767"/>
      <point x="0" y="767" type="curve" smooth="yes"/>
      <point x="-63" y="767"/>
      <point x="-112" y="718"/>
      <point x="-112" y="657" type="curve" smooth="yes"/>
      <point x="-112" y="596"/>
      <point x="-63" y="547"/>
    </contour>
    <contour>
      <point x="0" y="579" type="curve" smooth="yes"/>
      <point x="-46" y="579"/>
      <point x="-78" y="613"/>
      <point x="-78" y="657" type="curve" smooth="yes"/>
      <point x="-78" y="701"/>
      <point x="-46" y="735"/>
      <point x="0" y="735" type="curve" smooth="yes"/>
      <point x="46" y="735"/>
      <point x="78" y="701"/>
      <point x="78" y="657" type="curve" smooth="yes"/>
      <point x="78" y="613"/>
      <point x="46" y="579"/>
    </contour>
  </outline>
</glyph>
<glyph name="commaaccentcomb" format="2">
  <unicode hex="0326"/>
  <anchor x="0" y="0" name="_bottom"/>
  <anchor x="0" y="-170" name="bottom"/>
  <outline>
    <contour>
      <point x="-12" y="-259" type="line"/>
      <point x="19" y="-227"/>
      <point x="35" y="-185"/>
      <point x="35" y="-140" type="curve" smooth="yes"/>
      <point x="35" y="-86" type="line"/>
      <point x="-35" y="-86" type="line"/>
      <point x="-35" y="-151" type="line"/>
      <point x="15" y="-151" type="line"/>
      <point x="0" y="-144" type="line"/>
      <point x="0" y="-177"/>
      <point x="-7" y="-204"/>
      <point x="-38" y="-239" type="curve"/>
    </contour>
  </outline>
</glyph>
<glyph name="Sigma" format="2">
  <advance width="600"/>
  <unicode hex="03A3"/>
  <outline>
    <contour>
      <point x="52" y="-180" type="line"/>
      <point x="548" y="-180" type="line"/>
      <point x="548" y="-141" type="line"/>
      <point x="97" y="-141" type="line"/>
      <point x="97" y="-156" type="line"/>
      <point x="384" y="246" type="line"/>
      <point x="384" y="279" type="line"/>
      <point x="97" y="681" type="line"/>
      <point x="97" y="666" type="line"/>
      <point x="548" y="666" type="line"/>
      <point x="548" y="705" type="line"/>
      <point x="52" y="705" type="line"/>
      <point x="52" y="674" type="line"/>
      <point x="353" y="252" type="line"/>
      <point x="353" y="273" type="line"/>
      <point x="52" y="-149" type="line"/>
    </contour>
  </outline>
</glyph>
<glyph name="Omega" format="2">
  <advance width="768"/>
  <unicode hex="03A9"/>
  <outline>
    <contour>
      <point x="38" y="0" type="line"/>
      <point x="321" y="0" type="line"/>
      <point x="321" y="36" type="line"/>
      <point x="169" y="137"/>
      <point x="99" y="253"/>
      <point x="99" y="394" type="curve" smooth="yes"/>
      <point x="99" y="570"/>
      <point x="204" y="672"/>
      <point x="384" y="672" type="curve" smooth="yes"/>
      <point x="564" y="672"/>
      <point x="669" y="571"/>
      <point x="669" y="394" type="curve" smooth="yes"/>
      <point x="669" y="253"/>
      <point x="600" y="137"/>
      <point x="447" y="36" type="curve"/>
      <point x="447" y="0" type="line"/>
      <point x="730" y="0" type="line"/>
      <point x="730" y="38" type="line"/>
      <point x="480" y="38" type="line"/>
      <point x="480" y="22" type="line"/>
      <point x="637" y="117"/>
      <point x="714" y="242"/>
      <point x="714" y="394" type="curve" smooth="yes"/>
      <point x="714" y="593"/>
      <point x="587" y="713"/>
      <point x="384" y="713" type="curve" smooth="yes"/>
      <point x="181" y="713"/>
      <point x="54" y="592"/>
      <point x="54" y="394" type="curve" smooth="yes"/>
      <point x="54" y="242"/>
      <point x="131" y="117"/>
      <point x="288" y="22" type="curve"/>
      <point x="288" y="38" type="line"/>
      <point x="38" y="38" type="line"/>
    </contour>
  </outline>
</glyph>
<glyph name="mu" format="2">
  <advance width="561"/>
  <unicode hex="03BC"/>
  <outline>
    <contour>
      <point x="85" y="-216" type="line"/>
      <point x="127" y="-216" type="line"/>
      <point x="127" y="81" type="line"/>
      <point x="111" y="81" type="line"/>
      <point x="139" y="12"/>
      <point x="192" y="-8"/>
      <point x="262" y="-8" type="curve" smooth="yes"/>
      <point x="349" y="-8"/>
      <point x="417" y="39"/>
      <point x="444" y="122" type="curve"/>
      <point x="432" y="122" type="line"/>
      <point x="432" y="0" type="line"/>
      <point x="473" y="0" type="line"/>
      <point x="473" y="500" type="line"/>
      <point x="431" y="500" type="line"/>
      <point x="431" y="212" type="line" smooth="yes"/>
      <point x="431" y="103"/>
      <point x="364" y="31"/>
      <point x="262" y="31" type="curve" smooth="yes"/>
      <point x="170" y="31"/>
      <point x="127" y="79"/>
      <point x="127" y="187" type="curve" smooth="yes"/>
      <point x="127" y="500" type="line"/>
      <point x="85" y="500" type="line"/>
    </contour>
  </outline>
</glyph>
<glyph name="pi" format="2">
  <advance width="570"/>
  <unicode hex="03C0"/>
  <outline>
    <contour>
      <point x="34" y="0" type="curve"/>
      <point x="81" y="0" type="line"/>
      <point x="125" y="117"/>
      <point x="150" y="267"/>
      <point x="152" y="464" type="curve"/>
      <point x="357" y="464" type="line"/>
      <point x="357" y="171" type="line" smooth="yes"/>
      <point x="357" y="65"/>
      <point x="416" y="4"/>
      <point x="519" y="-3" type="curve" smooth="yes"/>
      <point x="563" y="-6" type="line"/>
      <point x="567" y="34" type="line"/>
      <point x="525" y="36" type="line" smooth="yes"/>
      <point x="443" y="43"/>
      <point x="399" y="87"/>
      <point x="399" y="171" type="curve"/>
      <point x="399" y="464" type="line"/>
      <point x="530" y="464" type="line"/>
      <point x="530" y="500" type="line"/>
      <point x="5" y="500" type="line"/>
      <point x="5" y="464" type="line"/>
      <point x="110" y="464" type="line"/>
      <point x="108" y="276"/>
      <point x="82" y="120"/>
    </contour>
  </outline>
</glyph>
<glyph name="E-cy" format="2">
  <advance width="684"/>
  <unicode hex="0404"/>
  <anchor x="391" y="0" name="bottom"/>
  <anchor x="394" y="705" name="top"/>
  <outline>
    <contour>
      <point x="385" y="-8" type="curve" smooth="yes"/>
      <point x="486" y="-8"/>
      <point x="564" y="25"/>
      <point x="624" y="88" type="curve"/>
      <point x="602" y="123" type="line"/>
      <point x="537" y="60"/>
      <point x="476" y="33"/>
      <point x="384" y="33" type="curve" smooth="yes"/>
      <point x="206" y="33"/>
      <point x="115" y="150"/>
      <point x="113" y="347" type="curve"/>
      <point x="94" y="338" type="line"/>
      <point x="511" y="338" type="line"/>
      <point x="511" y="378" type="line"/>
      <point x="95" y="378" type="line"/>
      <point x="113" y="362" type="line"/>
      <point x="116" y="555"/>
      <point x="206" y="672"/>
      <point x="384" y="672" type="curve" smooth="yes"/>
      <point x="476" y="672"/>
      <point x="537" y="645"/>
      <point x="602" y="582" type="curve"/>
      <point x="624" y="617" type="line"/>
      <point x="564" y="680"/>
      <point x="486" y="713"/>
      <point x="385" y="713" type="curve" smooth="yes"/>
      <point x="181" y="713"/>
      <point x="68" y="576"/>
      <point x="68" y="353" type="curve" smooth="yes"/>
      <point x="68" y="129"/>
      <point x="181" y="-8"/>
    </contour>
  </outline>
</glyph>
<glyph name="Lje-cy" format="2">
  <advance width="1162"/>
  <unicode hex="0409"/>
  <outline>
    <contour>
      <point x="37" y="-13" type="line"/>
      <point x="172" y="52"/>
      <point x="242" y="173"/>
      <point x="242" y="485" type="curve" smooth="yes"/>
      <point x="242" y="666" type="line"/>
      <point x="593" y="666" type="line"/>
      <point x="593" y="0" type="line"/>
      <point x="874" y="0" type="line" smooth="yes"/>
      <point x="1025" y="0"/>
      <point x="1108" y="64"/>
      <point x="1108" y="191" type="curve" smooth="yes"/>
      <point x="1108" y="318"/>
      <point x="1025" y="379"/>
      <point x="874" y="379" type="curve" smooth="yes"/>
      <point x="635" y="379" type="line"/>
      <point x="635" y="705" type="line"/>
      <point x="202" y="705" type="line"/>
      <point x="202" y="495" type="line" smooth="yes"/>
      <point x="202" y="166"/>
      <point x="131" y="80"/>
      <point x="20" y="25" type="curve"/>
    </contour>
    <contour>
      <point x="635" y="39" type="line"/>
      <point x="635" y="340" type="line"/>
      <point x="873" y="340" type="line" smooth="yes"/>
      <point x="1001" y="340"/>
      <point x="1064" y="292"/>
      <point x="1064" y="190" type="curve" smooth="yes"/>
      <point x="1064" y="88"/>
      <point x="1001" y="39"/>
      <point x="873" y="39" type="curve" smooth="yes"/>
    </contour>
  </outline>
</glyph>
<glyph name="Nje-cy" format="2">
  <advance width="1188"/>
  <unicode hex="040A"/>
  <outline>
    <contour>
      <point x="97" y="0" type="line"/>
      <point x="138" y="0" type="line"/>
      <point x="138" y="339" type="line"/>
      <point x="619" y="339" type="line"/>
      <point x="619" y="0" type="line"/>
      <point x="900" y="0" type="line" smooth="yes"/>
      <point x="1050" y="0"/>
      <point x="1134" y="64"/>
      <point x="1134" y="191" type="curve" smooth="yes"/>
      <point x="1134" y="318"/>
      <point x="1050" y="379"/>
      <point x="900" y="379" type="curve" smooth="yes"/>
      <point x="661" y="379" type="line"/>
      <point x="661" y="705" type="line"/>
      <point x="619" y="705" type="line"/>
      <point x="619" y="377" type="line"/>
      <point x="138" y="377" type="line"/>
      <point x="138" y="705" type="line"/>
      <point x="97" y="705" type="line"/>
    </contour>
    <contour>
      <point x="661" y="39" type="line"/>
      <point x="661" y="340" type="line"/>
      <point x="899" y="340" type="line" smooth="yes"/>
      <point x="1027" y="340"/>
      <point x="1089" y="292"/>
      <point x="1089" y="190" type="curve" smooth="yes"/>
      <point x="1089" y="88"/>
      <point x="1027" y="39"/>
      <point x="899" y="39" type="curve" smooth="yes"/>
    </contour>
  </outline>
</glyph>
<glyph name="Tshe-cy" format="2">
  <advance width="849"/>
  <unicode hex="040B"/>
  <outline>
    <contour>
      <point x="272" y="0" type="line"/>
      <point x="314" y="0" type="line"/>
      <point x="314" y="343" type="line"/>
      <point x="372" y="377"/>
      <point x="439" y="389"/>
      <point x="510" y="389" type="curve" smooth="yes"/>
      <point x="667" y="389"/>
      <point x="745" y="311"/>
      <point x="745" y="142" type="curve" smooth="yes"/>
      <point x="745" y="0" type="line"/>
      <point x="787" y="0" type="line"/>
      <point x="787" y="148" type="line" smooth="yes"/>
      <point x="787" y="334"/>
      <point x="692" y="429"/>
      <point x="511" y="429" type="curve" smooth="yes"/>
      <point x="439" y="429"/>
      <point x="362" y="415"/>
      <point x="314" y="387" type="curve"/>
      <point x="314" y="666" type="line"/>
      <point x="576" y="666" type="line"/>
      <point x="576" y="705" type="line"/>
      <point x="10" y="705" type="line"/>
      <point x="10" y="666" type="line"/>
      <point x="272" y="666" type="line"/>
    </contour>
  </outline>
</glyph>
<glyph name="Ge-cy" format="2">
  <advance width="541"/>
  <unicode hex="0413"/>
  <anchor x="96" y="0" name="bottomright"/>
  <anchor x="149" y="353" name="stroke"/>
  <anchor x="281" y="705" name="top"/>
  <outline>
    <contour>
      <point x="97" y="0" type="line"/>
      <point x="139" y="0" type="line"/>
      <point x="139" y="666" type="line"/>
      <point x="528" y="666" type="line"/>
      <point x="528" y="705" type="line"/>
      <point x="97" y="705" type="line"/>
    </contour>
  </outline>
</glyph>
<glyph name="Zhe-cy" format="2">
  <advance width="957"/>
  <unicode hex="0416"/>
  <anchor x="895" y="0" name="bottomright"/>
  <anchor x="479" y="705" name="top"/>
  <outline>
    <contour>
      <point x="17" y="0" type="line"/>
      <point x="63" y="0" type="line"/>
      <point x="166" y="210" type="line" smooth="yes"/>
      <point x="210" y="302"/>
      <point x="266" y="339"/>
      <point x="351" y="339" type="curve" smooth="yes"/>
      <point x="458" y="339" type="line"/>
      <point x="458" y="0" type="line"/>
      <point x="500" y="0" type="line"/>
      <point x="500" y="339" type="line"/>
      <point x="607" y="339" type="line" smooth="yes"/>
      <point x="690" y="339"/>
      <point x="744" y="303"/>
      <point x="790" y="210" type="curve" smooth="yes"/>
      <point x="895" y="0" type="line"/>
      <point x="940" y="0" type="line"/>
      <point x="819" y="239" type="line" smooth="yes"/>
      <point x="777" y="323"/>
      <point x="721" y="370"/>
      <point x="643" y="376" type="curve"/>
      <point x="655" y="359" type="line"/>
      <point x="900" y="705" type="line"/>
      <point x="851" y="705" type="line"/>
      <point x="609" y="363" type="line"/>
      <point x="633" y="378" type="line"/>
      <point x="500" y="378" type="line"/>
      <point x="500" y="705" type="line"/>
      <point x="458" y="705" type="line"/>
      <point x="458" y="378" type="line"/>
      <point x="327" y="378" type="line"/>
      <point x="348" y="363" type="line"/>
      <point x="107" y="705" type="line"/>
      <point x="58" y="705" type="line"/>
      <point x="303" y="359" type="line"/>
      <point x="315" y="376" type="line"/>
      <point x="236" y="370"/>
      <point x="178" y="323"/>
      <point x="136" y="239" type="curve" smooth="yes"/>
    </contour>
  </outline>
</glyph>
<glyph name="Ii-cy" format="2">
  <advance width="739"/>
  <unicode hex="0418"/>
  <anchor x="603" y="0" name="bottomright"/>
  <anchor x="372" y="705" name="top"/>
  <outline>
    <contour>
      <point x="97" y="0" type="line"/>
      <point x="131" y="0" type="line"/>
      <point x="623" y="665" type="line"/>
      <point x="603" y="665" type="line"/>
      <point x="603" y="0" type="line"/>
      <point x="642" y="0" type="line"/>
      <point x="642" y="705" type="line"/>
      <point x="606" y="705" type="line"/>
      <point x="114" y="40" type="line"/>
      <point x="136" y="40" type="line"/>
      <point x="136" y="705" type="line"/>
      <point x="97" y="705" type="line"/>
    </contour>
  </outline>
</glyph>
<glyph name="Ka-cy" format="2">
  <advance width="627"/>
  <unicode hex="041A"/>
  <anchor x="563" y="0" name="bottomright"/>
  <anchor x="313" y="353" name="center"/>
  <anchor x="323" y="705" name="top"/>
  <anchor x="138" y="705" name="topleft"/>
  <outline>
    <contour>
      <point x="97" y="0" type="line"/>
      <point x="138" y="0" type="line"/>
      <point x="138" y="339" type="line"/>
      <point x="277" y="339" type="line" smooth="yes"/>
      <point x="360" y="339"/>
      <point x="414" y="303"/>
      <point x="460" y="210" type="curve" smooth="yes"/>
      <point x="564" y="0" type="line"/>
      <point x="610" y="0" type="line"/>
      <point x="489" y="239" type="line" smooth="yes"/>
      <point x="446" y="323"/>
      <point x="391" y="370"/>
      <point x="312" y="376" type="curve"/>
      <point x="325" y="359" type="line"/>
      <point x="570" y="705" type="line"/>
      <point x="520" y="705" type="line"/>
      <point x="279" y="363" type="line"/>
      <point x="302" y="378" type="line"/>
      <point x="138" y="378" type="line"/>
      <point x="138" y="705" type="line"/>
      <point x="97" y="705" type="line"/>
    </contour>
  </outline>
</glyph>
<glyph name="El-cy" format="2">
  <advance width="753"/>
  <unicode hex="041B"/>
  <anchor x="614" y="0" name="bottomright"/>
  <outline>
    <contour>
      <point x="37" y="-13" type="line"/>
      <point x="172" y="52"/>
      <point x="242" y="173"/>
      <point x="242" y="485" type="curve" smooth="yes"/>
      <point x="242" y="666" type="line"/>
      <point x="614" y="666" type="line"/>
      <point x="614" y="0" type="line"/>
      <point x="656" y="0" type="line"/>
      <point x="656" y="705" type="line"/>
      <point x="202" y="705" type="line"/>
      <point x="202" y="495" type="line" smooth="yes"/>
      <point x="202" y="166"/>
      <point x="131" y="80"/>
      <point x="20" y="25" type="curve"/>
    </contour>
  </outline>
</glyph>
<glyph name="Tse-cy" format="2">
  <advance width="788"/>
  <unicode hex="0426"/>
  <outline>
    <contour>
      <point x="724" y="-150" type="line"/>
      <point x="765" y="-150" type="line"/>
      <point x="765" y="39" type="line"/>
      <point x="662" y="39" type="line"/>
      <point x="662" y="705" type="line"/>
      <point x="620" y="705" type="line"/>
      <point x="620" y="39" type="line"/>
      <point x="138" y="39" type="line"/>
      <point x="138" y="705" type="line"/>
      <point x="97" y="705" type="line"/>
      <point x="97" y="0" type="line"/>
      <point x="724" y="0" type="line"/>
    </contour>
  </outline>
</glyph>
<glyph name="Sha-cy" format="2">
  <advance width="1068"/>
  <unicode hex="0428"/>
  <outline>
    <contour>
      <point x="97" y="0" type="line"/>
      <point x="971" y="0" type="line"/>
      <point x="971" y="705" type="line"/>
      <point x="929" y="705" type="line"/>
      <point x="929" y="39" type="line"/>
      <point x="555" y="39" type="line"/>
      <point x="555" y="705" type="line"/>
      <point x="513" y="705" type="line"/>
      <point x="513" y="39" type="line"/>
      <point x="139" y="39" type="line"/>
      <point x="139" y="705" type="line"/>
      <point x="97" y="705" type="line"/>
    </contour>
  </outline>
</glyph>
<glyph name="Yeru-cy" format="2">
  <advance width="833"/>
  <unicode hex="042B"/>
  <anchor x="417" y="705" name="top"/>
  <outline>
    <contour>
      <point x="97" y="0" type="line"/>
      <point x="347" y="0" type="line" smooth="yes"/>
      <point x="497" y="0"/>
      <point x="581" y="64"/>
      <point x="581" y="191" type="curve" smooth="yes"/>
      <point x="581" y="318"/>
      <point x="497" y="379"/>
      <point x="347" y="379" type="curve" smooth="yes"/>
      <point x="139" y="379" type="line"/>
      <point x="139" y="705" type="line"/>
      <point x="97" y="705" type="line"/>
    </contour>
    <contour>
      <point x="139" y="39" type="line"/>
      <point x="139" y="340" type="line"/>
      <point x="346" y="340" type="line" smooth="yes"/>
      <point x="474" y="340"/>
      <point x="536" y="292"/>
      <point x="536" y="190" type="curve" smooth="yes"/>
      <point x="536" y="88"/>
      <point x="474" y="39"/>
      <point x="346" y="39" type="curve" smooth="yes"/>
    </contour>
    <contour>
      <point x="694" y="0" type="line"/>
      <point x="736" y="0" type="line"/>
      <point x="736" y="705" type="line"/>
      <point x="694" y="705" type="line"/>
    </contour>
  </outline>
</glyph>
<glyph name="Ia-cy" format="2">
  <advance width="673"/>
  <unicode hex="042F"/>
  <outline>
    <contour>
      <point x="46" y="0" type="line"/>
      <point x="93" y="0" type="line"/>
      <point x="219" y="226" type="line" smooth="yes"/>
      <point x="257" y="295"/>
      <point x="297" y="312"/>
      <point x="378" y="312" type="curve" smooth="yes"/>
      <point x="534" y="312" type="line"/>
      <point x="534" y="0" type="line"/>
      <point x="576" y="0" type="line"/>
      <point x="576" y="705" type="line"/>
      <point x="311" y="705" type="line" smooth="yes"/>
      <point x="159" y="705"/>
      <point x="76" y="636"/>
      <point x="76" y="509" type="curve" smooth="yes"/>
      <point x="76" y="385"/>
      <point x="164" y="315"/>
      <point x="313" y="315" type="curve"/>
      <point x="322" y="327" type="line"/>
      <point x="304" y="327" type="line" smooth="yes"/>
      <point x="251" y="327"/>
      <point x="215" y="302"/>
      <point x="182" y="242" type="curve" smooth="yes"/>
    </contour>
    <contour>
      <point x="315" y="351" type="line" smooth="yes"/>
      <point x="184" y="351"/>
      <point x="120" y="405"/>
      <point x="120" y="509" type="curve" smooth="yes"/>
      <point x="120" y="613"/>
      <point x="184" y="667"/>
      <point x="315" y="667" type="curve" smooth="yes"/>
      <point x="534" y="667" type="line"/>
      <point x="534" y="351" type="line"/>
    </contour>
  </outline>
</glyph>
<glyph name="ge-cy" format="2">
  <advance width="425"/>
  <unicode hex="0433"/>
  <anchor x="89" y="0" name="bottomright"/>
  <anchor x="136" y="251" name="center"/>
  <anchor x="237" y="484" name="top"/>
  <outline>
    <contour>
      <point x="88" y="0" type="line"/>
      <point x="130" y="0" type="line"/>
      <point x="130" y="464" type="line"/>
      <point x="413" y="464" type="line"/>
      <point x="413" y="500" type="line"/>
      <point x="88" y="500" type="line"/>
    </contour>
  </outline>
</glyph>
<glyph name="de-cy" format="2">
  <advance width="586"/>
  <unicode hex="0434"/>
  <outline>
    <contour>
      <point x="27" y="-130" type="line"/>
      <point x="65.006" y="-130" type="line"/>
      <point x="65.006" y="0" type="line"/>
      <point x="514" y="0" type="line"/>
      <point x="514" y="-130" type="line"/>
      <point x="552" y="-130" type="line"/>
      <point x="552" y="36" type="line"/>
      <point x="475" y="36" type="line"/>
      <point x="475" y="500" type="line"/>
      <point x="154" y="500" type="line"/>
      <point x="154" y="347" type="line" smooth="yes"/>
      <point x="154" y="212"/>
      <point x="131" y="111"/>
      <point x="76" y="36" type="curve"/>
      <point x="27" y="36" type="line"/>
    </contour>
    <contour>
      <point x="124" y="36" type="line"/>
      <point x="170" y="113"/>
      <point x="195" y="228"/>
      <point x="195" y="348" type="curve" smooth="yes"/>
      <point x="195" y="464" type="line"/>
      <point x="434" y="464" type="line"/>
      <point x="434" y="36" type="line"/>
    </contour>
  </outline>
</glyph>
<glyph name="el-cy" format="2">
  <advance width="568"/>
  <unicode hex="043B"/>
  <anchor x="439" y="0" name="bottomright"/>
  <outline>
    <contour>
      <point x="48" y="-9" type="line"/>
      <point x="158" y="48"/>
      <point x="194" y="142"/>
      <point x="194" y="394" type="curve" smooth="yes"/>
      <point x="194" y="464" type="line"/>
      <point x="438" y="464" type="line"/>
      <point x="438" y="0" type="line"/>
      <point x="480" y="0" type="line"/>
      <point x="480" y="500" type="line"/>
      <point x="153" y="500" type="line"/>
      <point x="153" y="395" type="line" smooth="yes"/>
      <point x="153" y="156"/>
      <point x="126" y="76"/>
      <point x="26" y="24" type="curve"/>
    </contour>
  </outline>
</glyph>
<glyph name="em-cy" format="2">
  <advance width="650"/>
  <unicode hex="043C"/>
  <anchor x="524" y="0" name="bottomright"/>
  <outline>
    <contour>
      <point x="88" y="0" type="line"/>
      <point x="126" y="0" type="line"/>
      <point x="126" y="455" type="line"/>
      <point x="106" y="455" type="line"/>
      <point x="312" y="80" type="line"/>
      <point x="338" y="80" type="line"/>
      <point x="544" y="454" type="line"/>
      <point x="524" y="454" type="line"/>
      <point x="524" y="0" type="line"/>
      <point x="562" y="0" type="line"/>
      <point x="562" y="500" type="line"/>
      <point x="527" y="500" type="line"/>
      <point x="325" y="132" type="line"/>
      <point x="124" y="500" type="line"/>
      <point x="88" y="500" type="line"/>
    </contour>
  </outline>
</glyph>
<glyph name="te-cy" format="2">
  <advance width="430"/>
  <unicode hex="0442"/>
  <anchor x="195" y="0" name="bottomright"/>
  <outline>
    <contour>
      <point x="194" y="0" type="line"/>
      <point x="236" y="0" type="line"/>
      <point x="236" y="464" type="line"/>
      <point x="427" y="464" type="line"/>
      <point x="427" y="500" type="line"/>
      <point x="3" y="500" type="line"/>
      <point x="3" y="464" type="line"/>
      <point x="194" y="464" type="line"/>
    </contour>
  </outline>
</glyph>
<glyph name="che-cy" format="2">
  <advance width="544"/>
  <unicode hex="0447"/>
  <anchor x="415" y="0" name="bottomright"/>
  <anchor x="262" y="207" name="center"/>
  <anchor x="262" y="484" name="top"/>
  <outline>
    <contour>
      <point x="414" y="0" type="line"/>
      <point x="456" y="0" type="line"/>
      <point x="456" y="500" type="line"/>
      <point x="414" y="500" type="line"/>
      <point x="414" y="262" type="line"/>
      <point x="369" y="230"/>
      <point x="326" y="218"/>
      <point x="266" y="218" type="curve" smooth="yes"/>
      <point x="159" y="218"/>
      <point x="109" y="264"/>
      <point x="109" y="372" type="curve" smooth="yes"/>
      <point x="109" y="500" type="line"/>
      <point x="67" y="500" type="line"/>
      <point x="67" y="370" type="line" smooth="yes"/>
      <point x="67" y="241"/>
      <point x="129" y="179"/>
      <point x="266" y="179" type="curve" smooth="yes"/>
      <point x="324" y="179"/>
      <point x="374" y="194"/>
      <point x="414" y="221" type="curve"/>
    </contour>
  </outline>
</glyph>
<glyph name="softsign-cy" format="2">
  <advance width="535"/>
  <unicode hex="044C"/>
  <outline>
    <contour>
      <point x="88" y="0" type="line"/>
      <point x="298" y="0" type="line" smooth="yes"/>
      <point x="423" y="0"/>
      <point x="487" y="56"/>
      <point x="487" y="155" type="curve" smooth="yes"/>
      <point x="487" y="253"/>
      <point x="423" y="309"/>
      <point x="298" y="309" type="curve" smooth="yes"/>
      <point x="130" y="309" type="line"/>
      <point x="130" y="500" type="line"/>
      <point x="88" y="500" type="line"/>
    </contour>
    <contour>
      <point x="130" y="36" type="line"/>
      <point x="130" y="273" type="line"/>
      <point x="300" y="273" type="line" smooth="yes"/>
      <point x="393" y="273"/>
      <point x="443" y="236"/>
      <point x="443" y="155" type="curve" smooth="yes"/>
      <point x="443" y="73"/>
      <point x="393" y="36"/>
      <point x="300" y="36" type="curve" smooth="yes"/>
    </contour>
  </outline>
</glyph>
<glyph name="ereversed-cy" format="2">
  <advance width="503"/>
  <unicode hex="044D"/>
  <anchor x="231" y="484" name="top"/>
  <outline>
    <contour>
      <point x="219" y="-8" type="curve" smooth="yes"/>
      <point x="357" y="-8"/>
      <point x="446" y="89"/>
      <point x="446" y="252" type="curve" smooth="yes"/>
      <point x="446" y="414"/>
      <point x="360" y="508"/>
      <point x="220" y="508" type="curve" smooth="yes"/>
      <point x="154" y="508"/>
      <point x="85" y="482"/>
      <point x="46" y="439" type="curve"/>
      <point x="67" y="405" type="line"/>
      <point x="107" y="450"/>
      <point x="166" y="469"/>
      <point x="220" y="469" type="curve" smooth="yes"/>
      <point x="345" y="469"/>
      <point x="401" y="381"/>
      <point x="403" y="263" type="curve"/>
      <point x="413" y="275" type="line"/>
      <point x="133" y="275" type="line"/>
      <point x="133" y="236" type="line"/>
      <point x="412" y="236" type="line"/>
      <point x="403" y="248" type="line"/>
      <point x="402" y="110"/>
      <point x="335" y="31"/>
      <point x="220" y="31" type="curve" smooth="yes"/>
      <point x="163" y="31"/>
      <point x="107" y="51"/>
      <point x="67" y="95" type="curve"/>
      <point x="46" y="62" type="line"/>
      <point x="79" y="19"/>
      <point x="151" y="-8"/>
    </contour>
  </outline>
</glyph>
<glyph name="iu-cy" format="2">
  <advance width="746"/>
  <unicode hex="044E"/>
  <outline>
    <contour>
      <point x="466" y="-8" type="curve" smooth="yes"/>
      <point x="602" y="-8"/>
      <point x="689" y="90"/>
      <point x="689" y="250" type="curve" smooth="yes"/>
      <point x="689" y="410"/>
      <point x="602" y="508"/>
      <point x="466" y="508" type="curve" smooth="yes"/>
      <point x="338" y="508"/>
      <point x="254" y="422"/>
      <point x="244" y="278" type="curve"/>
      <point x="129" y="278" type="line"/>
      <point x="129" y="500" type="line"/>
      <point x="88" y="500" type="line"/>
      <point x="88" y="0" type="line"/>
      <point x="129" y="0" type="line"/>
      <point x="129" y="241" type="line"/>
      <point x="243" y="241" type="line"/>
      <point x="247" y="86"/>
      <point x="333" y="-8"/>
    </contour>
    <contour>
      <point x="466" y="31" type="curve" smooth="yes"/>
      <point x="356" y="31"/>
      <point x="286" y="109"/>
      <point x="286" y="250" type="curve" smooth="yes"/>
      <point x="286" y="391"/>
      <point x="356" y="469"/>
      <point x="466" y="469" type="curve" smooth="yes"/>
      <point x="576" y="469"/>
      <point x="646" y="391"/>
      <point x="646" y="250" type="curve" smooth="yes"/>
      <point x="646" y="109"/>
      <point x="576" y="31"/>
    </contour>
  </outline>
</glyph>
<glyph name="dje-cy" format="2">
  <advance width="574"/>
  <unicode hex="0452"/>
  <outline>
    <contour>
      <point x="306" y="-185" type="line"/>
      <point x="444" y="-158"/>
      <point x="488" y="-85"/>
      <point x="488" y="53" type="curve" smooth="yes"/>
      <point x="488" y="319" type="line" smooth="yes"/>
      <point x="488" y="449"/>
      <point x="426" y="508"/>
      <point x="306" y="508" type="curve" smooth="yes"/>
      <point x="219" y="508"/>
      <point x="148" y="463"/>
      <point x="123" y="385" type="curve"/>
      <point x="133" y="385" type="line"/>
      <point x="133" y="594" type="line"/>
      <point x="337" y="594" type="line"/>
      <point x="337" y="631" type="line"/>
      <point x="133" y="631" type="line"/>
      <point x="133" y="736" type="line"/>
      <point x="91" y="736" type="line"/>
      <point x="91" y="631" type="line"/>
      <point x="-8" y="631" type="line"/>
      <point x="-8" y="594" type="line"/>
      <point x="91" y="594" type="line"/>
      <point x="91" y="0" type="line"/>
      <point x="133" y="0" type="line"/>
      <point x="133" y="289" type="line" smooth="yes"/>
      <point x="133" y="398"/>
      <point x="201" y="469"/>
      <point x="309" y="469" type="curve" smooth="yes"/>
      <point x="400" y="469"/>
      <point x="446" y="425"/>
      <point x="446" y="315" type="curve" smooth="yes"/>
      <point x="446" y="49" type="line" smooth="yes"/>
      <point x="446" y="-65"/>
      <point x="416" y="-124"/>
      <point x="298" y="-148" type="curve"/>
    </contour>
  </outline>
</glyph>
<glyph name="e-cy" format="2">
  <advance width="510"/>
  <unicode hex="0454"/>
  <outline>
    <contour>
      <point x="284" y="-8" type="curve" smooth="yes"/>
      <point x="350" y="-8"/>
      <point x="422" y="18"/>
      <point x="457" y="62" type="curve"/>
      <point x="436" y="94" type="line"/>
      <point x="396" y="50"/>
      <point x="338" y="31"/>
      <point x="283" y="31" type="curve" smooth="yes"/>
      <point x="166" y="31"/>
      <point x="101" y="110"/>
      <point x="99" y="249" type="curve"/>
      <point x="89" y="236" type="line"/>
      <point x="369" y="236" type="line"/>
      <point x="369" y="275" type="line"/>
      <point x="90" y="275" type="line"/>
      <point x="99" y="263" type="line"/>
      <point x="101" y="381"/>
      <point x="158" y="469"/>
      <point x="283" y="469" type="curve" smooth="yes"/>
      <point x="338" y="469"/>
      <point x="396" y="450"/>
      <point x="436" y="406" type="curve"/>
      <point x="457" y="439" type="line"/>
      <point x="423" y="481"/>
      <point x="354" y="508"/>
      <point x="285" y="508" type="curve" smooth="yes"/>
      <point x="145" y="508"/>
      <point x="57" y="416"/>
      <point x="57" y="254" type="curve" smooth="yes"/>
      <point x="57" y="91"/>
      <point x="143" y="-8"/>
    </contour>
  </outline>
</glyph>
<glyph name="lje-cy" format="2">
  <advance width="885"/>
  <unicode hex="0459"/>
  <outline>
    <contour>
      <point x="48" y="-9" type="line"/>
      <point x="158" y="48"/>
      <point x="194" y="142"/>
      <point x="194" y="394" type="curve" smooth="yes"/>
      <point x="194" y="464" type="line"/>
      <point x="438" y="464" type="line"/>
      <point x="438" y="0" type="line"/>
      <point x="648" y="0" type="line" smooth="yes"/>
      <point x="773" y="0"/>
      <point x="837" y="56"/>
      <point x="837" y="155" type="curve" smooth="yes"/>
      <point x="837" y="253"/>
      <point x="772" y="309"/>
      <point x="648" y="309" type="curve" smooth="yes"/>
      <point x="479" y="309" type="line"/>
      <point x="479" y="500" type="line"/>
      <point x="153" y="500" type="line"/>
      <point x="153" y="395" type="line" smooth="yes"/>
      <point x="153" y="156"/>
      <point x="126" y="76"/>
      <point x="26" y="24" type="curve"/>
    </contour>
    <contour>
      <point x="479" y="36" type="line"/>
      <point x="479" y="273" type="line"/>
      <point x="650" y="273" type="line" smooth="yes"/>
      <point x="742" y="273"/>
      <point x="793" y="236"/>
      <point x="793" y="155" type="curve" smooth="yes"/>
      <point x="793" y="73"/>
      <point x="743" y="36"/>
      <point x="650" y="36" type="curve" smooth="yes"/>
    </contour>
  </outline>
</glyph>
<glyph name="dzhe-cy" format="2">
  <advance width="577"/>
  <unicode hex="045F"/>
  <outline>
    <contour>
      <point x="269" y="-130" type="line"/>
      <point x="307" y="-130" type="line"/>
      <point x="307" y="0" type="line"/>
      <point x="489" y="0" type="line"/>
      <point x="489" y="500" type="line"/>
      <point x="447" y="500" type="line"/>
      <point x="447" y="36" type="line"/>
      <point x="130" y="36" type="line"/>
      <point x="130" y="500" type="line"/>
      <point x="88" y="500" type="line"/>
      <point x="88" y="0" type="line"/>
      <point x="269" y="0" type="line"/>
    </contour>
  </outline>
</glyph>
<glyph name="yat-cy" format="2">
  <advance width="616"/>
  <unicode hex="0463"/>
  <outline>
    <contour>
      <point x="169" y="0" type="line"/>
      <point x="379" y="0" type="line" smooth="yes"/>
      <point x="504" y="0"/>
      <point x="568" y="56"/>
      <point x="568" y="155" type="curve" smooth="yes"/>
      <point x="568" y="253"/>
      <point x="504" y="309"/>
      <point x="379" y="309" type="curve" smooth="yes"/>
      <point x="211" y="309" type="line"/>
      <point x="211" y="462" type="line"/>
      <point x="376" y="462" type="line"/>
      <point x="376" y="500" type="line"/>
      <point x="211" y="500" type="line"/>
      <point x="211" y="736" type="line"/>
      <point x="169" y="736" type="line"/>
      <point x="169" y="500" type="line"/>
      <point x="3" y="500" type="line"/>
      <point x="3" y="462" type="line"/>
      <point x="169" y="462" type="line"/>
    </contour>
    <contour>
      <point x="211" y="36" type="line"/>
      <point x="211" y="273" type="line"/>
      <point x="381" y="273" type="line" smooth="yes"/>
      <point x="474" y="273"/>
      <point x="524" y="236"/>
      <point x="524" y="155" type="curve" smooth="yes"/>
      <point x="524" y="73"/>
      <point x="474" y="36"/>
      <point x="381" y="36" type="curve" smooth="yes"/>
    </contour>
  </outline>
</glyph>
<glyph name="Yusbig-cy" format="2">
  <advance width="934"/>
  <unicode hex="046A"/>
  <outline>
    <contour>
      <point x="17" y="0" type="line"/>
      <point x="62" y="0" type="line"/>
      <point x="167" y="210" type="line" smooth="yes"/>
      <point x="214" y="304"/>
      <point x="267" y="339"/>
      <point x="350" y="339" type="curve" smooth="yes"/>
      <point x="446" y="339" type="line"/>
      <point x="446" y="0" type="line"/>
      <point x="488" y="0" type="line"/>
      <point x="488" y="339" type="line"/>
      <point x="585" y="339" type="line" smooth="yes"/>
      <point x="667" y="339"/>
      <point x="721" y="304"/>
      <point x="767" y="210" type="curve" smooth="yes"/>
      <point x="872" y="0" type="line"/>
      <point x="917" y="0" type="line"/>
      <point x="797" y="239" type="line" smooth="yes"/>
      <point x="756" y="320"/>
      <point x="699" y="378"/>
      <point x="573" y="378" type="curve" smooth="yes"/>
      <point x="501" y="378" type="line"/>
      <point x="506" y="365" type="line"/>
      <point x="810" y="705" type="line"/>
      <point x="124" y="705" type="line"/>
      <point x="428" y="365" type="line"/>
      <point x="433" y="378" type="line"/>
      <point x="361" y="378" type="line" smooth="yes"/>
      <point x="235" y="378"/>
      <point x="179" y="320"/>
      <point x="137" y="239" type="curve" smooth="yes"/>
    </contour>
    <contour>
      <point x="466" y="382" type="line"/>
      <point x="191" y="694" type="line"/>
      <point x="191" y="667" type="line"/>
      <point x="743" y="667" type="line"/>
      <point x="743" y="694" type="line"/>
      <point x="468" y="382" type="line"/>
    </contour>
  </outline>
</glyph>
<glyph name="yusbig-cy" format="2">
  <advance width="770"/>
  <unicode hex="046B"/>
  <outline>
    <contour>
      <point x="7" y="0" type="line"/>
      <point x="53" y="0" type="line"/>
      <point x="151" y="159" type="line" smooth="yes"/>
      <point x="192" y="226"/>
      <point x="218" y="242"/>
      <point x="285" y="242" type="curve" smooth="yes"/>
      <point x="364" y="242" type="line"/>
      <point x="364" y="0" type="line"/>
      <point x="406" y="0" type="line"/>
      <point x="406" y="242" type="line"/>
      <point x="485" y="242" type="line" smooth="yes"/>
      <point x="552" y="242"/>
      <point x="578" y="226"/>
      <point x="619" y="159" type="curve" smooth="yes"/>
      <point x="717" y="0" type="line"/>
      <point x="763" y="0" type="line"/>
      <point x="662" y="164" type="line" smooth="yes"/>
      <point x="609" y="251"/>
      <point x="579" y="277"/>
      <point x="499" y="277" type="curve" smooth="yes"/>
      <point x="415" y="277" type="line"/>
      <point x="417" y="270" type="line"/>
      <point x="616" y="500" type="line"/>
      <point x="154" y="500" type="line"/>
      <point x="354" y="270" type="line"/>
      <point x="355" y="277" type="line"/>
      <point x="272" y="277" type="line" smooth="yes"/>
      <point x="191" y="277"/>
      <point x="163" y="251"/>
      <point x="109" y="164" type="curve" smooth="yes"/>
    </contour>
    <contour>
      <point x="385" y="292" type="line"/>
      <point x="225" y="479" type="line"/>
      <point x="225" y="464" type="line"/>
      <point x="545" y="464" type="line"/>
      <point x="545" y="479" type="line"/>
      <point x="387" y="292" type="line"/>
    </contour>
  </outline>
</glyph>
<glyph name="Ertick-cy" format="2">
  <advance width="638"/>
  <unicode hex="048E"/>
  <outline>
    <contour>
      <point x="97" y="0" type="line"/>
      <point x="138" y="0" type="line"/>
      <point x="138" y="297" type="line"/>
      <point x="350" y="297" type="line" smooth="yes"/>
      <point x="386" y="297"/>
      <point x="413" y="301"/>
      <point x="438" y="307" type="curve"/>
      <point x="422" y="318" type="line"/>
      <point x="492" y="216" type="line"/>
      <point x="522" y="237" type="line"/>
      <point x="460" y="329" type="line"/>
      <point x="462" y="315" type="line"/>
      <point x="540" y="342"/>
      <point x="585" y="408"/>
      <point x="585" y="501" type="curve" smooth="yes"/>
      <point x="585" y="633"/>
      <point x="502" y="705"/>
      <point x="350" y="705" type="curve" smooth="yes"/>
      <point x="97" y="705" type="line"/>
    </contour>
    <contour>
      <point x="138" y="336" type="line"/>
      <point x="138" y="667" type="line"/>
      <point x="350" y="667" type="line" smooth="yes"/>
      <point x="478" y="667"/>
      <point x="541" y="610"/>
      <point x="541" y="501" type="curve" smooth="yes"/>
      <point x="541" y="422"/>
      <point x="508" y="371"/>
      <point x="439" y="348" type="curve"/>
      <point x="453" y="340" type="line"/>
      <point x="384" y="441" type="line"/>
      <point x="353" y="420" type="line"/>
      <point x="413" y="331" type="line"/>
      <point x="414" y="341" type="line"/>
      <point x="397" y="337"/>
      <point x="369" y="336"/>
      <point x="349" y="336" type="curve" smooth="yes"/>
    </contour>
  </outline>
</glyph>
<glyph name="ertick-cy" format="2">
  <advance width="589"/>
  <unicode hex="048F"/>
  <outline>
    <contour>
      <point x="91" y="-216" type="line"/>
      <point x="133" y="-216" type="line"/>
      <point x="133" y="131" type="line"/>
      <point x="122" y="131" type="line"/>
      <point x="144" y="44"/>
      <point x="214" y="-8"/>
      <point x="310" y="-8" type="curve" smooth="yes"/>
      <point x="359" y="-8"/>
      <point x="401" y="4"/>
      <point x="435" y="28" type="curve"/>
      <point x="426" y="27" type="line"/>
      <point x="474" y="-34" type="line"/>
      <point x="504" y="-11" type="line"/>
      <point x="454" y="51" type="line"/>
      <point x="449" y="38" type="line"/>
      <point x="502" y="82"/>
      <point x="532" y="155"/>
      <point x="532" y="250" type="curve" smooth="yes"/>
      <point x="532" y="411"/>
      <point x="445" y="508"/>
      <point x="310" y="508" type="curve" smooth="yes"/>
      <point x="214" y="508"/>
      <point x="144" y="456"/>
      <point x="122" y="369" type="curve"/>
      <point x="134" y="369" type="line"/>
      <point x="124" y="500" type="line"/>
      <point x="83" y="500" type="line"/>
      <point x="87" y="463"/>
      <point x="91" y="426"/>
      <point x="91" y="392" type="curve" smooth="yes"/>
    </contour>
    <contour>
      <point x="310" y="469" type="curve" smooth="yes"/>
      <point x="419" y="469"/>
      <point x="489" y="391"/>
      <point x="489" y="250" type="curve" smooth="yes"/>
      <point x="489" y="169"/>
      <point x="468" y="110"/>
      <point x="428" y="74" type="curve"/>
      <point x="442" y="66" type="line"/>
      <point x="385" y="138" type="line"/>
      <point x="355" y="115" type="line"/>
      <point x="406" y="52" type="line"/>
      <point x="409" y="59" type="line"/>
      <point x="382" y="42"/>
      <point x="349" y="32"/>
      <point x="310" y="31" type="curve" smooth="yes"/>
      <point x="201" y="28"/>
      <point x="132" y="109"/>
      <point x="132" y="250" type="curve" smooth="yes"/>
      <point x="132" y="391"/>
      <point x="201" y="469"/>
    </contour>
  </outline>
</glyph>
<glyph name="gheupturn-cy" format="2">
  <advance width="425"/>
  <unicode hex="0491"/>
  <outline>
    <contour>
      <point x="88" y="0" type="line"/>
      <point x="130" y="0" type="line"/>
      <point x="130" y="464" type="line"/>
      <point x="413" y="464" type="line"/>
      <point x="413" y="618" type="line"/>
      <point x="375" y="618" type="line"/>
      <point x="375" y="500" type="line"/>
      <point x="88" y="500" type="line"/>
    </contour>
  </outline>
</glyph>
<glyph name="Ghestroke-cy" format="2">
  <advance width="574"/>
  <unicode hex="0492"/>
  <outline>
    <contour>
      <point x="130" y="0" type="line"/>
      <point x="172" y="0" type="line"/>
      <point x="172" y="338" type="line"/>
      <point x="368" y="338" type="line"/>
      <point x="368" y="376" type="line"/>
      <point x="172" y="376" type="line"/>
      <point x="172" y="666" type="line"/>
      <point x="561" y="666" type="line"/>
      <point x="561" y="705" type="line"/>
      <point x="130" y="705" type="line"/>
      <point x="130" y="376" type="line"/>
      <point x="27" y="376" type="line"/>
      <point x="27" y="338" type="line"/>
      <point x="130" y="338" type="line"/>
    </contour>
  </outline>
</glyph>
<glyph name="ghestroke-cy" format="2">
  <advance width="445"/>
  <unicode hex="0493"/>
  <outline>
    <contour>
      <point x="109" y="0" type="line"/>
      <point x="150" y="0" type="line"/>
      <point x="150" y="234" type="line"/>
      <point x="306" y="234" type="line"/>
      <point x="306" y="270" type="line"/>
      <point x="150" y="270" type="line"/>
      <point x="150" y="464" type="line"/>
      <point x="433" y="464" type="line"/>
      <point x="433" y="500" type="line"/>
      <point x="109" y="500" type="line"/>
      <point x="109" y="270" type="line"/>
      <point x="5" y="270" type="line"/>
      <point x="5" y="234" type="line"/>
      <point x="109" y="234" type="line"/>
    </contour>
  </outline>
</glyph>
<glyph name="ghemiddlehook-cy" format="2">
  <advance width="541"/>
  <unicode hex="0495"/>
  <outline>
    <contour>
      <point x="309" y="-185" type="line"/>
      <point x="448" y="-157"/>
      <point x="489" y="-85"/>
      <point x="489" y="53" type="curve" smooth="yes"/>
      <point x="489" y="138" type="line" smooth="yes"/>
      <point x="489" y="271"/>
      <point x="428" y="334"/>
      <point x="308" y="334" type="curve" smooth="yes"/>
      <point x="216" y="334"/>
      <point x="143" y="286"/>
      <point x="117" y="206" type="curve"/>
      <point x="130" y="207" type="line"/>
      <point x="130" y="461" type="line"/>
      <point x="413" y="461" type="line"/>
      <point x="413" y="500" type="line"/>
      <point x="88" y="500" type="line"/>
      <point x="88" y="0" type="line"/>
      <point x="130" y="0" type="line"/>
      <point x="130" y="115" type="line" smooth="yes"/>
      <point x="130" y="223"/>
      <point x="200" y="295"/>
      <point x="309" y="295" type="curve" smooth="yes"/>
      <point x="405" y="295"/>
      <point x="447" y="247"/>
      <point x="447" y="134" type="curve" smooth="yes"/>
      <point x="447" y="50" type="line" smooth="yes"/>
      <point x="447" y="-64"/>
      <point x="420" y="-124"/>
      <point x="301" y="-148" type="curve"/>
    </contour>
  </outline>
</glyph>
<glyph name="kaverticalstroke-cy" format="2">
  <advance width="509"/>
  <unicode hex="049D"/>
  <outline>
    <contour>
      <point x="88" y="0" type="line"/>
      <point x="130" y="0" type="line"/>
      <point x="130" y="242" type="line"/>
      <point x="190" y="242" type="line"/>
      <point x="190" y="114" type="line"/>
      <point x="226" y="114" type="line"/>
      <point x="226" y="252" type="line"/>
      <point x="209" y="242" type="line"/>
      <point x="223" y="242" type="line" smooth="yes"/>
      <point x="291" y="242"/>
      <point x="316" y="225"/>
      <point x="357" y="159" type="curve" smooth="yes"/>
      <point x="455" y="0" type="line"/>
      <point x="502" y="0" type="line"/>
      <point x="400" y="164" type="line" smooth="yes"/>
      <point x="345" y="252"/>
      <point x="319" y="270"/>
      <point x="261" y="277" type="curve"/>
      <point x="281" y="265" type="line"/>
      <point x="473" y="500" type="line"/>
      <point x="423" y="500" type="line"/>
      <point x="242" y="277" type="line"/>
      <point x="226" y="277" type="line"/>
      <point x="226" y="396" type="line"/>
      <point x="190" y="396" type="line"/>
      <point x="190" y="277" type="line"/>
      <point x="130" y="277" type="line"/>
      <point x="130" y="500" type="line"/>
      <point x="88" y="500" type="line"/>
    </contour>
  </outline>
</glyph>
<glyph name="Kastroke-cy" format="2">
  <advance width="662"/>
  <unicode hex="049E"/>
  <outline>
    <contour>
      <point x="132" y="0" type="line"/>
      <point x="173" y="0" type="line"/>
      <point x="173" y="339" type="line"/>
      <point x="312" y="339" type="line" smooth="yes"/>
      <point x="395" y="339"/>
      <point x="449" y="303"/>
      <point x="495" y="210" type="curve" smooth="yes"/>
      <point x="599" y="0" type="line"/>
      <point x="645" y="0" type="line"/>
      <point x="524" y="239" type="line" smooth="yes"/>
      <point x="481" y="323"/>
      <point x="426" y="370"/>
      <point x="347" y="376" type="curve"/>
      <point x="360" y="359" type="line"/>
      <point x="605" y="705" type="line"/>
      <point x="555" y="705" type="line"/>
      <point x="314" y="363" type="line"/>
      <point x="337" y="378" type="line"/>
      <point x="173" y="378" type="line"/>
      <point x="173" y="552" type="line"/>
      <point x="331" y="552" type="line"/>
      <point x="331" y="590" type="line"/>
      <point x="173" y="590" type="line"/>
      <point x="173" y="705" type="line"/>
      <point x="132" y="705" type="line"/>
      <point x="132" y="590" type="line"/>
      <point x="-13" y="590" type="line"/>
      <point x="-13" y="552" type="line"/>
      <point x="132" y="552" type="line"/>
    </contour>
  </outline>
</glyph>
<glyph name="kastroke-cy" format="2">
  <advance width="512"/>
  <unicode hex="049F"/>
  <outline>
    <contour>
      <point x="91" y="0" type="line"/>
      <point x="133" y="0" type="line"/>
      <point x="133" y="242" type="line"/>
      <point x="226" y="242" type="line" smooth="yes"/>
      <point x="294" y="242"/>
      <point x="319" y="225"/>
      <point x="360" y="159" type="curve" smooth="yes"/>
      <point x="458" y="0" type="line"/>
      <point x="505" y="0" type="line"/>
      <point x="403" y="164" type="line" smooth="yes"/>
      <point x="348" y="252"/>
      <point x="324" y="270"/>
      <point x="265" y="277" type="curve"/>
      <point x="284" y="265" type="line"/>
      <point x="476" y="500" type="line"/>
      <point x="427" y="500" type="line"/>
      <point x="245" y="277" type="line"/>
      <point x="133" y="277" type="line"/>
      <point x="133" y="594" type="line"/>
      <point x="337" y="594" type="line"/>
      <point x="337" y="631" type="line"/>
      <point x="133" y="631" type="line"/>
      <point x="133" y="736" type="line"/>
      <point x="91" y="736" type="line"/>
      <point x="91" y="631" type="line"/>
      <point x="-8" y="631" type="line"/>
      <point x="-8" y="594" type="line"/>
      <point x="91" y="594" type="line"/>
    </contour>
  </outline>
</glyph>
<glyph name="enghe-cy" format="2">
  <advance width="741"/>
  <unicode hex="04A5"/>
  <outline>
    <contour>
      <point x="88" y="0" type="line"/>
      <point x="130" y="0" type="line"/>
      <point x="130" y="241" type="line"/>
      <point x="443" y="241" type="line"/>
      <point x="443" y="0" type="line"/>
      <point x="485" y="0" type="line"/>
      <point x="485" y="464" type="line"/>
      <point x="729" y="464" type="line"/>
      <point x="729" y="500" type="line"/>
      <point x="443" y="500" type="line"/>
      <point x="443" y="278" type="line"/>
      <point x="130" y="278" type="line"/>
      <point x="130" y="500" type="line"/>
      <point x="88" y="500" type="line"/>
    </contour>
  </outline>
</glyph>
<glyph name="ustraightstroke-cy" format="2">
  <advance width="526"/>
  <unicode hex="04B1"/>
  <outline>
    <contour>
      <point x="243" y="-180" type="line"/>
      <point x="285" y="-180" type="line"/>
      <point x="285" y="-36" type="line"/>
      <point x="407" y="-36" type="line"/>
      <point x="407" y="0" type="line"/>
      <point x="280" y="0" type="line"/>
      <point x="281" y="-15" type="line"/>
      <point x="499" y="500" type="line"/>
      <point x="452" y="500" type="line"/>
      <point x="251" y="16" type="line"/>
      <point x="275" y="16" type="line"/>
      <point x="75" y="500" type="line"/>
      <point x="27" y="500" type="line"/>
      <point x="247" y="-17" type="line"/>
      <point x="247" y="0" type="line"/>
      <point x="121" y="0" type="line"/>
      <point x="121" y="-36" type="line"/>
      <point x="243" y="-36" type="line"/>
    </contour>
  </outline>
</glyph>
<glyph name="Tetse-cy" format="2">
  <advance width="931"/>
  <unicode hex="04B4"/>
  <outline>
    <contour>
      <point x="867" y="-150" type="line"/>
      <point x="908" y="-150" type="line"/>
      <point x="908" y="39" type="line"/>
      <point x="805" y="39" type="line"/>
      <point x="805" y="705" type="line"/>
      <point x="763" y="705" type="line"/>
      <point x="763" y="39" type="line"/>
      <point x="281" y="39" type="line"/>
      <point x="281" y="666" type="line"/>
      <point x="511" y="666" type="line"/>
      <point x="511" y="705" type="line"/>
      <point x="10" y="705" type="line"/>
      <point x="10" y="666" type="line"/>
      <point x="240" y="666" type="line"/>
      <point x="240" y="0" type="line"/>
      <point x="867" y="0" type="line"/>
    </contour>
  </outline>
</glyph>
<glyph name="tetse-cy" format="2">
  <advance width="676"/>
  <unicode hex="04B5"/>
  <outline>
    <contour>
      <point x="604" y="-130" type="line"/>
      <point x="642" y="-130" type="line"/>
      <point x="642" y="36" type="line"/>
      <point x="565" y="36" type="line"/>
      <point x="565" y="500" type="line"/>
      <point x="523" y="500" type="line"/>
      <point x="523" y="36" type="line"/>
      <point x="210" y="36" type="line"/>
      <point x="210" y="464" type="line"/>
      <point x="388" y="464" type="line"/>
      <point x="388" y="500" type="line"/>
      <point x="3" y="500" type="line"/>
      <point x="3" y="464" type="line"/>
      <point x="169" y="464" type="line"/>
      <point x="169" y="0" type="line"/>
      <point x="604" y="0" type="line"/>
    </contour>
  </outline>
</glyph>
<glyph name="cheverticalstroke-cy" format="2">
  <advance width="544"/>
  <unicode hex="04B9"/>
  <outline>
    <contour>
      <point x="414" y="0" type="line"/>
      <point x="456" y="0" type="line"/>
      <point x="456" y="500" type="line"/>
      <point x="414" y="500" type="line"/>
      <point x="414" y="261" type="line"/>
      <point x="369" y="231"/>
      <point x="325" y="219"/>
      <point x="272" y="218" type="curve"/>
      <point x="284" y="210" type="line"/>
      <point x="284" y="352" type="line"/>
      <point x="248" y="352" type="line"/>
      <point x="248" y="210" type="line"/>
      <point x="261" y="218" type="line"/>
      <point x="159" y="218"/>
      <point x="109" y="265"/>
      <point x="109" y="371" type="curve" smooth="yes"/>
      <point x="109" y="500" type="line"/>
      <point x="67" y="500" type="line"/>
      <point x="67" y="370" type="line" smooth="yes"/>
      <point x="67" y="242"/>
      <point x="129" y="179"/>
      <point x="264" y="179" type="curve"/>
      <point x="248" y="190" type="line"/>
      <point x="248" y="73" type="line"/>
      <point x="284" y="73" type="line"/>
      <point x="284" y="190" type="line"/>
      <point x="276" y="179" type="line"/>
      <point x="323" y="180"/>
      <point x="374" y="194"/>
      <point x="414" y="220" type="curve"/>
    </contour>
  </outline>
</glyph>
<glyph name="cheabkhasian-cy" format="2">
  <advance width="640"/>
  <unicode hex="04BD"/>
  <anchor x="450" y="0" name="ogonek"/>
  <outline>
    <contour>
      <point x="390" y="-8" type="curve" smooth="yes"/>
      <point x="463" y="-8"/>
      <point x="536" y="18"/>
      <point x="578" y="64" type="curve"/>
      <point x="557" y="97" type="line"/>
      <point x="506" y="49"/>
      <point x="452" y="31"/>
      <point x="390" y="31" type="curve" smooth="yes"/>
      <point x="266" y="31"/>
      <point x="190" y="107"/>
      <point x="193" y="258" type="curve"/>
      <point x="185" y="252" type="line"/>
      <point x="586" y="252" type="line"/>
      <point x="586" y="279" type="line" smooth="yes"/>
      <point x="586" y="421"/>
      <point x="510" y="508"/>
      <point x="381" y="508" type="curve" smooth="yes"/>
      <point x="249" y="508"/>
      <point x="158" y="415"/>
      <point x="150" y="267" type="curve"/>
      <point x="173" y="290" type="line"/>
      <point x="142" y="290" type="line" smooth="yes"/>
      <point x="83" y="290"/>
      <point x="62" y="317"/>
      <point x="62" y="373" type="curve" smooth="yes"/>
      <point x="62" y="413" type="line"/>
      <point x="22" y="413" type="line"/>
      <point x="22" y="374" type="line" smooth="yes"/>
      <point x="22" y="297"/>
      <point x="62" y="253"/>
      <point x="142" y="252" type="curve" smooth="yes"/>
      <point x="156" y="252" type="line"/>
      <point x="150" y="258" type="line"/>
      <point x="147" y="86"/>
      <point x="243" y="-8"/>
    </contour>
    <contour>
      <point x="380" y="470" type="curve" smooth="yes"/>
      <point x="490" y="470"/>
      <point x="547" y="397"/>
      <point x="547" y="277" type="curve"/>
      <point x="564" y="290" type="line"/>
      <point x="185" y="290" type="line"/>
      <point x="194" y="273" type="line"/>
      <point x="199" y="382"/>
      <point x="262" y="470"/>
    </contour>
  </outline>
</glyph>
<glyph name="Kahook-cy" format="2">
  <advance width="657"/>
  <unicode hex="04C3"/>
  <outline>
    <contour>
      <point x="401" y="-188" type="curve" smooth="yes"/>
      <point x="526" y="-188"/>
      <point x="595" y="-109"/>
      <point x="595" y="41" type="curve" smooth="yes"/>
      <point x="595" y="98" type="line" smooth="yes"/>
      <point x="595" y="285"/>
      <point x="505" y="376"/>
      <point x="323" y="377" type="curve"/>
      <point x="324" y="359" type="line"/>
      <point x="569" y="705" type="line"/>
      <point x="520" y="705" type="line"/>
      <point x="278" y="363" type="line"/>
      <point x="301" y="378" type="line"/>
      <point x="138" y="378" type="line"/>
      <point x="138" y="705" type="line"/>
      <point x="97" y="705" type="line"/>
      <point x="97" y="0" type="line"/>
      <point x="138" y="0" type="line"/>
      <point x="138" y="339" type="line"/>
      <point x="307" y="339" type="line" smooth="yes"/>
      <point x="476" y="339"/>
      <point x="553" y="266"/>
      <point x="553" y="92" type="curve" smooth="yes"/>
      <point x="553" y="41" type="line" smooth="yes"/>
      <point x="553" y="-87"/>
      <point x="501" y="-150"/>
      <point x="401" y="-150" type="curve" smooth="yes"/>
      <point x="361" y="-150"/>
      <point x="328" y="-144"/>
      <point x="301" y="-131" type="curve"/>
      <point x="301" y="-173" type="line"/>
      <point x="324" y="-182"/>
      <point x="365" y="-188"/>
    </contour>
  </outline>
</glyph>
<glyph name="dzeabkhasian-cy" format="2">
  <advance width="489"/>
  <unicode hex="04E1"/>
  <outline>
    <contour>
      <point x="229" y="-188" type="curve" smooth="yes"/>
      <point x="372" y="-188"/>
      <point x="454" y="-110"/>
      <point x="454" y="22" type="curve" smooth="yes"/>
      <point x="454" y="144"/>
      <point x="375" y="214"/>
      <point x="237" y="214" type="curve" smooth="yes"/>
      <point x="174" y="214" type="line"/>
      <point x="175" y="193" type="line"/>
      <point x="423" y="471" type="line"/>
      <point x="423" y="500" type="line"/>
      <point x="38" y="500" type="line"/>
      <point x="38" y="461" type="line"/>
      <point x="376" y="461" type="line"/>
      <point x="376" y="475" type="line"/>
      <point x="130" y="199" type="line"/>
      <point x="130" y="176" type="line"/>
      <point x="241" y="176" type="line" smooth="yes"/>
      <point x="348" y="176"/>
      <point x="411" y="120"/>
      <point x="411" y="22" type="curve" smooth="yes"/>
      <point x="411" y="-89"/>
      <point x="350" y="-150"/>
      <point x="229" y="-150" type="curve" smooth="yes"/>
      <point x="151" y="-150"/>
      <point x="93" y="-131"/>
      <point x="43" y="-90" type="curve"/>
      <point x="23" y="-124" type="line"/>
      <point x="68" y="-164"/>
      <point x="143" y="-188"/>
    </contour>
  </outline>
</glyph>
<glyph name="Reversedze-cy" format="2">
  <advance width="663"/>
  <unicode hex="0510"/>
  <outline>
    <contour>
      <point x="335" y="-8" type="curve" smooth="yes"/>
      <point x="458" y="-8"/>
      <point x="559" y="29"/>
      <point x="615" y="88" type="curve"/>
      <point x="593" y="124" type="line"/>
      <point x="523" y="61"/>
      <point x="446" y="33"/>
      <point x="334" y="33" type="curve" smooth="yes"/>
      <point x="184" y="33"/>
      <point x="115" y="86"/>
      <point x="115" y="188" type="curve" smooth="yes"/>
      <point x="115" y="290"/>
      <point x="179" y="337"/>
      <point x="307" y="337" type="curve" smooth="yes"/>
      <point x="486" y="337" type="line"/>
      <point x="486" y="376" type="line"/>
      <point x="321" y="376" type="line" smooth="yes"/>
      <point x="198" y="376"/>
      <point x="132" y="428"/>
      <point x="132" y="522" type="curve" smooth="yes"/>
      <point x="132" y="617"/>
      <point x="202" y="672"/>
      <point x="334" y="672" type="curve" smooth="yes"/>
      <point x="428" y="672"/>
      <point x="508" y="645"/>
      <point x="575" y="584" type="curve"/>
      <point x="597" y="620" type="line"/>
      <point x="534" y="681"/>
      <point x="439" y="713"/>
      <point x="338" y="713" type="curve" smooth="yes"/>
      <point x="177" y="713"/>
      <point x="88" y="640"/>
      <point x="88" y="522" type="curve" smooth="yes"/>
      <point x="88" y="433"/>
      <point x="147" y="371"/>
      <point x="239" y="352" type="curve"/>
      <point x="239" y="365" type="line"/>
      <point x="136" y="354"/>
      <point x="71" y="291"/>
      <point x="71" y="191" type="curve" smooth="yes"/>
      <point x="71" y="65"/>
      <point x="158" y="-8"/>
    </contour>
  </outline>
</glyph>
<glyph name="Germandbls" format="2">
  <advance width="683"/>
  <unicode hex="1E9E"/>
  <outline>
    <contour>
      <point x="391" y="-8" type="curve" smooth="yes"/>
      <point x="531" y="-8"/>
      <point x="612" y="61"/>
      <point x="612" y="186" type="curve" smooth="yes"/>
      <point x="612" y="290"/>
      <point x="543" y="354"/>
      <point x="435" y="367" type="curve"/>
      <point x="435" y="353" type="line"/>
      <point x="518" y="370"/>
      <point x="572" y="439"/>
      <point x="572" y="529" type="curve" smooth="yes"/>
      <point x="572" y="643"/>
      <point x="490" y="713"/>
      <point x="344" y="713" type="curve" smooth="yes"/>
      <point x="175" y="713"/>
      <point x="97" y="630"/>
      <point x="97" y="470" type="curve" smooth="yes"/>
      <point x="97" y="0" type="line"/>
      <point x="139" y="0" type="line"/>
      <point x="139" y="467" type="line" smooth="yes"/>
      <point x="139" y="604"/>
      <point x="195" y="673"/>
      <point x="345" y="673" type="curve" smooth="yes"/>
      <point x="470" y="673"/>
      <point x="528" y="621"/>
      <point x="528" y="524" type="curve" smooth="yes"/>
      <point x="528" y="427"/>
      <point x="461" y="374"/>
      <point x="352" y="374" type="curve" smooth="yes"/>
      <point x="237" y="374" type="line"/>
      <point x="237" y="335" type="line"/>
      <point x="380" y="335" type="line" smooth="yes"/>
      <point x="506" y="335"/>
      <point x="567" y="282"/>
      <point x="567" y="186" type="curve" smooth="yes"/>
      <point x="567" y="89"/>
      <point x="506" y="32"/>
      <point x="391" y="32" type="curve" smooth="yes"/>
      <point x="319" y="32"/>
      <point x="274" y="49"/>
      <point x="220" y="97" type="curve"/>
      <point x="197" y="62" type="line"/>
      <point x="245" y="16"/>
      <point x="307" y="-8"/>
    </contour>
  </outline>
</glyph>
<glyph name="figuredash" format="2">
  <advance width="600"/>
  <unicode hex="2012"/>
  <outline>
    <contour>
      <point x="74" y="257" type="line"/>
      <point x="526" y="257" type="line"/>
      <point x="526" y="290" type="line"/>
      <point x="74" y="290" type="line"/>
    </contour>
  </outline>
</glyph>
<glyph name="perthousand" format="2">
  <advance width="1324"/>
  <unicode hex="2030"/>
  <outline>
    <contour>
      <point x="1096" y="-8" type="curve" smooth="yes"/>
      <point x="1200" y="-8"/>
      <point x="1264" y="70"/>
      <point x="1264" y="208" type="curve" smooth="yes"/>
      <point x="1264" y="345"/>
      <point x="1200" y="423"/>
      <point x="1096" y="423" type="curve" smooth="yes"/>
      <point x="993" y="423"/>
      <point x="928" y="345"/>
      <point x="928" y="208" type="curve" smooth="yes"/>
      <point x="928" y="69"/>
      <point x="992" y="-8"/>
    </contour>
    <contour>
      <point x="1096" y="29" type="curve" smooth="yes"/>
      <point x="1018" y="29"/>
      <point x="971" y="91"/>
      <point x="971" y="208" type="curve" smooth="yes"/>
      <point x="971" y="324"/>
      <point x="1018" y="386"/>
      <point x="1096" y="386" type="curve" smooth="yes"/>
      <point x="1174" y="386"/>
      <point x="1222" y="324"/>
      <point x="1222" y="208" type="curve" smooth="yes"/>
      <point x="1222" y="91"/>
      <point x="1174" y="29"/>
    </contour>
    <contour>
      <point x="273" y="0" type="line"/>
      <point x="695" y="705" type="line"/>
      <point x="653" y="705" type="line"/>
      <point x="231" y="0" type="line"/>
    </contour>
    <contour>
      <point x="228" y="281" type="curve" smooth="yes"/>
      <point x="332" y="281"/>
      <point x="396" y="359"/>
      <point x="396" y="497" type="curve" smooth="yes"/>
      <point x="396" y="634"/>
      <point x="332" y="712"/>
      <point x="228" y="712" type="curve" smooth="yes"/>
      <point x="125" y="712"/>
      <point x="60" y="634"/>
      <point x="60" y="497" type="curve" smooth="yes"/>
      <point x="60" y="359"/>
      <point x="124" y="281"/>
    </contour>
    <contour>
      <point x="228" y="318" type="curve" smooth="yes"/>
      <point x="150" y="318"/>
      <point x="103" y="380"/>
      <point x="103" y="497" type="curve" smooth="yes"/>
      <point x="103" y="613"/>
      <point x="150" y="675"/>
      <point x="228" y="675" type="curve" smooth="yes"/>
      <point x="306" y="675"/>
      <point x="354" y="613"/>
      <point x="354" y="497" type="curve" smooth="yes"/>
      <point x="354" y="380"/>
      <point x="306" y="318"/>
    </contour>
    <contour>
      <point x="698" y="-8" type="curve" smooth="yes"/>
      <point x="802" y="-8"/>
      <point x="866" y="70"/>
      <point x="866" y="208" type="curve" smooth="yes"/>
      <point x="866" y="345"/>
      <point x="802" y="423"/>
      <point x="698" y="423" type="curve" smooth="yes"/>
      <point x="595" y="423"/>
      <point x="530" y="345"/>
      <point x="530" y="208" type="curve" smooth="yes"/>
      <point x="530" y="69"/>
      <point x="594" y="-8"/>
    </contour>
    <contour>
      <point x="698" y="29" type="curve" smooth="yes"/>
      <point x="620" y="29"/>
      <point x="573" y="91"/>
      <point x="573" y="208" type="curve" smooth="yes"/>
      <point x="573" y="324"/>
      <point x="620" y="386"/>
      <point x="698" y="386" type="curve" smooth="yes"/>
      <point x="776" y="386"/>
      <point x="824" y="324"/>
      <point x="824" y="208" type="curve" smooth="yes"/>
      <point x="824" y="91"/>
      <point x="776" y="29"/>
    </contour>
  </outline>
</glyph>
<glyph name="fraction" format="2">
  <advance width="160"/>
  <unicode hex="2044"/>
  <outline>
    <contour>
      <point x="-114" y="-8" type="line"/>
      <point x="316" y="713" type="line"/>
      <point x="274" y="713" type="line"/>
      <point x="-156" y="-8" type="line"/>
    </contour>
  </outline>
</glyph>
<glyph name="lira" format="2">
  <advance width="600"/>
  <unicode hex="20A4"/>
  <outline>
    <contour>
      <point x="49" y="0" type="line"/>
      <point x="559" y="0" type="line"/>
      <point x="559" y="39" type="line"/>
      <point x="111" y="39" type="line"/>
      <point x="111" y="33" type="line"/>
      <point x="167" y="56"/>
      <point x="207" y="100"/>
      <point x="207" y="186" type="curve" smooth="yes"/>
      <point x="207" y="261" type="line"/>
      <point x="405" y="261" type="line"/>
      <point x="405" y="297" type="line"/>
      <point x="207" y="297" type="line"/>
      <point x="207" y="411" type="line"/>
      <point x="405" y="411" type="line"/>
      <point x="405" y="447" type="line"/>
      <point x="201" y="447" type="line"/>
      <point x="207" y="442" type="line"/>
      <point x="207" y="524" type="line" smooth="yes"/>
      <point x="207" y="623"/>
      <point x="259" y="672"/>
      <point x="360" y="672" type="curve" smooth="yes"/>
      <point x="440" y="672"/>
      <point x="489" y="647"/>
      <point x="539" y="592" type="curve"/>
      <point x="562" y="629" type="line"/>
      <point x="513" y="683"/>
      <point x="443" y="713"/>
      <point x="368" y="713" type="curve" smooth="yes"/>
      <point x="233" y="713"/>
      <point x="165" y="647"/>
      <point x="165" y="522" type="curve" smooth="yes"/>
      <point x="165" y="442" type="line"/>
      <point x="172" y="447" type="line"/>
      <point x="49" y="447" type="line"/>
      <point x="49" y="411" type="line"/>
      <point x="165" y="411" type="line"/>
      <point x="165" y="297" type="line"/>
      <point x="49" y="297" type="line"/>
      <point x="49" y="261" type="line"/>
      <point x="165" y="261" type="line"/>
      <point x="165" y="167" type="line" smooth="yes"/>
      <point x="165" y="103"/>
      <point x="120" y="64"/>
      <point x="49" y="33" type="curve"/>
    </contour>
  </outline>
</glyph>
<glyph name="won" format="2">
  <advance width="600"/>
  <unicode hex="20A9"/>
  <outline>
    <contour>
      <point x="154" y="0" type="line"/>
      <point x="200" y="0" type="line"/>
      <point x="312" y="669" type="line"/>
      <point x="288" y="669" type="line"/>
      <point x="400" y="0" type="line"/>
      <point x="446" y="0" type="line"/>
      <point x="481" y="262" type="line"/>
      <point x="586" y="262" type="line"/>
      <point x="586" y="298" type="line"/>
      <point x="485" y="298" type="line"/>
      <point x="500" y="412" type="line"/>
      <point x="586" y="412" type="line"/>
      <point x="586" y="448" type="line"/>
      <point x="505" y="448" type="line"/>
      <point x="538" y="705" type="line"/>
      <point x="500" y="705" type="line"/>
      <point x="416" y="18" type="line"/>
      <point x="430" y="18" type="line"/>
      <point x="317" y="705" type="line"/>
      <point x="283" y="705" type="line"/>
      <point x="170" y="18" type="line"/>
      <point x="184" y="18" type="line"/>
      <point x="101" y="705" type="line"/>
      <point x="62" y="705" type="line"/>
      <point x="95" y="448" type="line"/>
      <point x="14" y="448" type="line"/>
      <point x="14" y="412" type="line"/>
      <point x="100" y="412" type="line"/>
      <point x="115" y="298" type="line"/>
      <point x="14" y="298" type="line"/>
      <point x="14" y="262" type="line"/>
      <point x="119" y="262" type="line"/>
    </contour>
  </outline>
</glyph>
<glyph name="dong" format="2">
  <advance width="600"/>
  <unicode hex="20AB"/>
  <outline>
    <contour>
      <point x="278" y="-8" type="curve" smooth="yes"/>
      <point x="367" y="-8"/>
      <point x="427" y="42"/>
      <point x="449" y="126" type="curve"/>
      <point x="438" y="126" type="line"/>
      <point x="438" y="0" type="line"/>
      <point x="480" y="0" type="line"/>
      <point x="480" y="583" type="line"/>
      <point x="558" y="583" type="line"/>
      <point x="558" y="619" type="line"/>
      <point x="480" y="619" type="line"/>
      <point x="480" y="736" type="line"/>
      <point x="438" y="736" type="line"/>
      <point x="438" y="619" type="line"/>
      <point x="282" y="619" type="line"/>
      <point x="282" y="583" type="line"/>
      <point x="438" y="583" type="line"/>
      <point x="438" y="358" type="line"/>
      <point x="449" y="358" type="line"/>
      <point x="427" y="442"/>
      <point x="367" y="492"/>
      <point x="278" y="492" type="curve" smooth="yes"/>
      <point x="153" y="492"/>
      <point x="75" y="395"/>
      <point x="75" y="242" type="curve" smooth="yes"/>
      <point x="75" y="89"/>
      <point x="154" y="-8"/>
    </contour>
    <contour>
      <point x="87" y="-127" type="line"/>
      <point x="480" y="-127" type="line"/>
      <point x="480" y="-91" type="line"/>
      <point x="87" y="-91" type="line"/>
    </contour>
    <contour>
      <point x="278" y="31" type="curve" smooth="yes"/>
      <point x="177" y="31"/>
      <point x="118" y="106"/>
      <point x="118" y="242" type="curve" smooth="yes"/>
      <point x="118" y="375"/>
      <point x="179" y="453"/>
      <point x="279" y="453" type="curve" smooth="yes"/>
      <point x="378" y="453"/>
      <point x="439" y="375"/>
      <point x="439" y="242" type="curve" smooth="yes"/>
      <point x="439" y="106"/>
      <point x="378" y="31"/>
    </contour>
  </outline>
</glyph>
<glyph name="kip" format="2">
  <advance width="600"/>
  <unicode hex="20AD"/>
  <outline>
    <contour>
      <point x="127" y="0" type="line"/>
      <point x="169" y="0" type="line"/>
      <point x="169" y="335" type="line"/>
      <point x="171" y="335" type="line"/>
      <point x="512" y="0" type="line"/>
      <point x="567" y="0" type="line"/>
      <point x="220" y="342" type="line"/>
      <point x="220" y="335" type="line"/>
      <point x="536" y="335" type="line"/>
      <point x="536" y="371" type="line"/>
      <point x="221" y="371" type="line"/>
      <point x="221" y="366" type="line"/>
      <point x="567" y="705" type="line"/>
      <point x="513" y="705" type="line"/>
      <point x="171" y="371" type="line"/>
      <point x="169" y="371" type="line"/>
      <point x="169" y="705" type="line"/>
      <point x="127" y="705" type="line"/>
      <point x="127" y="371" type="line"/>
      <point x="14" y="371" type="line"/>
      <point x="14" y="335" type="line"/>
      <point x="127" y="335" type="line"/>
    </contour>
  </outline>
</glyph>
<glyph name="cedi" format="2">
  <advance width="600"/>
  <unicode hex="20B5"/>
  <outline>
    <contour>
      <point x="333" y="-115" type="line"/>
      <point x="373" y="-115" type="line"/>
      <point x="373" y="12" type="line"/>
      <point x="361" y="-4" type="line"/>
      <point x="421" y="-3"/>
      <point x="507" y="20"/>
      <point x="563" y="91" type="curve"/>
      <point x="542" y="126" type="line"/>
      <point x="495" y="63"/>
      <point x="431" y="37"/>
      <point x="354" y="37" type="curve" smooth="yes"/>
      <point x="202" y="37"/>
      <point x="117" y="154"/>
      <point x="117" y="353" type="curve" smooth="yes"/>
      <point x="117" y="551"/>
      <point x="202" y="668"/>
      <point x="354" y="668" type="curve" smooth="yes"/>
      <point x="431" y="668"/>
      <point x="495" y="642"/>
      <point x="542" y="579" type="curve"/>
      <point x="563" y="614" type="line"/>
      <point x="507" y="685"/>
      <point x="421" y="708"/>
      <point x="361" y="709" type="curve"/>
      <point x="373" y="692" type="line"/>
      <point x="373" y="820" type="line"/>
      <point x="333" y="820" type="line"/>
      <point x="333" y="693" type="line"/>
      <point x="347" y="709" type="line"/>
      <point x="177" y="707"/>
      <point x="72" y="574"/>
      <point x="72" y="353" type="curve" smooth="yes"/>
      <point x="72" y="131"/>
      <point x="177" y="-2"/>
      <point x="347" y="-4" type="curve"/>
      <point x="333" y="12" type="line"/>
    </contour>
  </outline>
</glyph>
<glyph name="ruble" format="2">
  <advance width="600"/>
  <unicode hex="20BD"/>
  <outline>
    <contour>
      <point x="115" y="0" type="line"/>
      <point x="157" y="0" type="line"/>
      <point x="157" y="156" type="line"/>
      <point x="346" y="156" type="line"/>
      <point x="346" y="192" type="line"/>
      <point x="157" y="192" type="line"/>
      <point x="157" y="306" type="line"/>
      <point x="347" y="306" type="line" smooth="yes"/>
      <point x="475" y="306"/>
      <point x="566" y="382"/>
      <point x="566" y="503" type="curve" smooth="yes"/>
      <point x="566" y="633"/>
      <point x="481" y="705"/>
      <point x="337" y="705" type="curve" smooth="yes"/>
      <point x="115" y="705" type="line"/>
      <point x="115" y="342" type="line"/>
      <point x="14" y="342" type="line"/>
      <point x="14" y="306" type="line"/>
      <point x="115" y="306" type="line"/>
      <point x="115" y="192" type="line"/>
      <point x="14" y="192" type="line"/>
      <point x="14" y="156" type="line"/>
      <point x="115" y="156" type="line"/>
    </contour>
    <contour>
      <point x="157" y="342" type="line"/>
      <point x="157" y="666" type="line"/>
      <point x="339" y="666" type="line" smooth="yes"/>
      <point x="461" y="666"/>
      <point x="524" y="610"/>
      <point x="524" y="505" type="curve" smooth="yes"/>
      <point x="524" y="400"/>
      <point x="460" y="342"/>
      <point x="340" y="342" type="curve" smooth="yes"/>
    </contour>
  </outline>
</glyph>
<glyph name="Ohm" format="2">
  <advance width="600"/>
  <unicode hex="2126"/>
  <outline>
    <contour>
      <point x="43" y="0" type="line"/>
      <point x="251" y="0" type="line"/>
      <point x="251" y="36" type="line"/>
      <point x="140" y="136"/>
      <point x="98" y="253"/>
      <point x="98" y="394" type="curve" smooth="yes"/>
      <point x="98" y="571"/>
      <point x="163" y="672"/>
      <point x="299" y="672" type="curve" smooth="yes"/>
      <point x="436" y="672"/>
      <point x="502" y="573"/>
      <point x="502" y="394" type="curve" smooth="yes"/>
      <point x="502" y="253"/>
      <point x="459" y="136"/>
      <point x="348" y="36" type="curve"/>
      <point x="348" y="0" type="line"/>
      <point x="557" y="0" type="line"/>
      <point x="557" y="38" type="line"/>
      <point x="373" y="38" type="line"/>
      <point x="373" y="22" type="line"/>
      <point x="490" y="109"/>
      <point x="547" y="234"/>
      <point x="547" y="394" type="curve" smooth="yes"/>
      <point x="547" y="591"/>
      <point x="461" y="713"/>
      <point x="299" y="713" type="curve" smooth="yes"/>
      <point x="139" y="713"/>
      <point x="53" y="590"/>
      <point x="53" y="394" type="curve" smooth="yes"/>
      <point x="53" y="234"/>
      <point x="109" y="109"/>
      <point x="226" y="22" type="curve"/>
      <point x="226" y="38" type="line"/>
      <point x="43" y="38" type="line"/>
    </contour>
  </outline>
</glyph>
<glyph name="partialdiff" format="2">
  <advance width="600"/>
  <unicode hex="2202"/>
  <outline>
    <contour>
      <point x="302" y="-8" type="curve" smooth="yes"/>
      <point x="452" y="-8"/>
      <point x="540" y="103"/>
      <point x="540" y="307" type="curve" smooth="yes"/>
      <point x="540" y="573"/>
      <point x="428" y="740"/>
      <point x="214" y="740" type="curve" smooth="yes"/>
      <point x="193" y="740"/>
      <point x="178" y="738"/>
      <point x="157" y="735" type="curve"/>
      <point x="157" y="703" type="line"/>
      <point x="209" y="703" type="line" smooth="yes"/>
      <point x="390" y="703"/>
      <point x="489" y="564"/>
      <point x="496" y="344" type="curve"/>
      <point x="505" y="344" type="line"/>
      <point x="472" y="430"/>
      <point x="397" y="475"/>
      <point x="302" y="475" type="curve" smooth="yes"/>
      <point x="161" y="475"/>
      <point x="67" y="374"/>
      <point x="67" y="232" type="curve" smooth="yes"/>
      <point x="67" y="89"/>
      <point x="161" y="-8"/>
    </contour>
    <contour>
      <point x="304" y="31" type="curve" smooth="yes"/>
      <point x="184" y="31"/>
      <point x="110" y="111"/>
      <point x="110" y="233" type="curve" smooth="yes"/>
      <point x="110" y="354"/>
      <point x="184" y="436"/>
      <point x="302" y="436" type="curve" smooth="yes"/>
      <point x="413" y="436"/>
      <point x="495" y="363"/>
      <point x="495" y="257" type="curve" smooth="yes"/>
      <point x="495" y="118"/>
      <point x="420" y="31"/>
    </contour>
  </outline>
</glyph>
<glyph name="product" format="2">
  <advance width="600"/>
  <unicode hex="220F"/>
  <outline>
    <contour>
      <point x="48" y="-180" type="line"/>
      <point x="90" y="-180" type="line"/>
      <point x="90" y="666" type="line"/>
      <point x="510" y="666" type="line"/>
      <point x="510" y="-180" type="line"/>
      <point x="552" y="-180" type="line"/>
      <point x="552" y="705" type="line"/>
      <point x="48" y="705" type="line"/>
    </contour>
  </outline>
</glyph>
<glyph name="radical" format="2">
  <advance width="600"/>
  <unicode hex="221A"/>
  <outline>
    <contour>
      <point x="265" y="-180" type="line"/>
      <point x="301" y="-180" type="line"/>
      <point x="599" y="758" type="line"/>
      <point x="554" y="758" type="line"/>
      <point x="269" y="-157" type="line"/>
      <point x="297" y="-157" type="line"/>
      <point x="127" y="303" type="line"/>
      <point x="3" y="303" type="line"/>
      <point x="3" y="264" type="line"/>
      <point x="119" y="264" type="line"/>
      <point x="92" y="275" type="line"/>
    </contour>
  </outline>
</glyph>
<glyph name="infinity" format="2">
  <advance width="600"/>
  <unicode hex="221E"/>
  <outline>
    <contour>
      <point x="167" y="159" type="curve" smooth="yes"/>
      <point x="214" y="159"/>
      <point x="268" y="186"/>
      <point x="300" y="243" type="curve"/>
      <point x="333" y="186"/>
      <point x="387" y="159"/>
      <point x="434" y="159" type="curve" smooth="yes"/>
      <point x="511" y="159"/>
      <point x="559" y="217"/>
      <point x="559" y="284" type="curve" smooth="yes"/>
      <point x="559" y="351"/>
      <point x="511" y="409"/>
      <point x="434" y="409" type="curve" smooth="yes"/>
      <point x="387" y="409"/>
      <point x="333" y="382"/>
      <point x="300" y="324" type="curve"/>
      <point x="267" y="382"/>
      <point x="214" y="409"/>
      <point x="167" y="409" type="curve" smooth="yes"/>
      <point x="89" y="409"/>
      <point x="42" y="351"/>
      <point x="42" y="284" type="curve" smooth="yes"/>
      <point x="42" y="217"/>
      <point x="89" y="159"/>
    </contour>
    <contour>
      <point x="167" y="195" type="curve" smooth="yes"/>
      <point x="114" y="195"/>
      <point x="83" y="234"/>
      <point x="83" y="284" type="curve" smooth="yes"/>
      <point x="83" y="334"/>
      <point x="114" y="373"/>
      <point x="167" y="373" type="curve" smooth="yes"/>
      <point x="204" y="373"/>
      <point x="246" y="360"/>
      <point x="282" y="285" type="curve"/>
      <point x="246" y="209"/>
      <point x="204" y="195"/>
    </contour>
    <contour>
      <point x="434" y="195" type="curve" smooth="yes"/>
      <point x="397" y="195"/>
      <point x="354" y="209"/>
      <point x="319" y="285" type="curve"/>
      <point x="354" y="360"/>
      <point x="397" y="373"/>
      <point x="434" y="373" type="curve" smooth="yes"/>
      <point x="486" y="373"/>
      <point x="518" y="334"/>
      <point x="518" y="284" type="curve" smooth="yes"/>
      <point x="518" y="234"/>
      <point x="486" y="195"/>
    </contour>
  </outline>
</glyph>
<glyph name="integral" format="2">
  <advance width="600"/>
  <unicode hex="222B"/>
  <outline>
    <contour>
      <point x="219" y="-184" type="curve" smooth="yes"/>
      <point x="288" y="-184"/>
      <point x="333" y="-145"/>
      <point x="333" y="-62" type="curve" smooth="yes"/>
      <point x="333" y="591" type="line" smooth="yes"/>
      <point x="333" y="656"/>
      <point x="359" y="681"/>
      <point x="407" y="681" type="curve" smooth="yes"/>
      <point x="432" y="681"/>
      <point x="456" y="674"/>
      <point x="471" y="668" type="curve"/>
      <point x="471" y="708" type="line"/>
      <point x="456" y="714"/>
      <point x="427" y="720"/>
      <point x="405" y="720" type="curve" smooth="yes"/>
      <point x="336" y="720"/>
      <point x="291" y="681"/>
      <point x="291" y="598" type="curve" smooth="yes"/>
      <point x="291" y="-56" type="line" smooth="yes"/>
      <point x="291" y="-121"/>
      <point x="265" y="-145"/>
      <point x="217" y="-145" type="curve" smooth="yes"/>
      <point x="192" y="-145"/>
      <point x="168" y="-138"/>
      <point x="153" y="-132" type="curve"/>
      <point x="153" y="-172" type="line"/>
      <point x="168" y="-178"/>
      <point x="197" y="-184"/>
    </contour>
  </outline>
</glyph>
<glyph name="approxequal" format="2">
  <advance width="600"/>
  <unicode hex="2248"/>
  <outline>
    <contour>
      <point x="422" y="324" type="curve" smooth="yes"/>
      <point x="479" y="324"/>
      <point x="518" y="353"/>
      <point x="548" y="417" type="curve"/>
      <point x="512" y="432" type="line"/>
      <point x="491" y="385"/>
      <point x="461" y="363"/>
      <point x="420" y="363" type="curve" smooth="yes"/>
      <point x="392" y="363"/>
      <point x="365" y="377"/>
      <point x="309" y="407" type="curve" smooth="yes"/>
      <point x="249" y="439"/>
      <point x="215" y="450"/>
      <point x="179" y="450" type="curve" smooth="yes"/>
      <point x="123" y="450"/>
      <point x="82" y="420"/>
      <point x="53" y="357" type="curve"/>
      <point x="89" y="342" type="line"/>
      <point x="111" y="390"/>
      <point x="140" y="411"/>
      <point x="181" y="411" type="curve" smooth="yes"/>
      <point x="205" y="411"/>
      <point x="228" y="403"/>
      <point x="287" y="370" type="curve" smooth="yes"/>
      <point x="347" y="337"/>
      <point x="386" y="324"/>
    </contour>
    <contour>
      <point x="422" y="124" type="curve" smooth="yes"/>
      <point x="479" y="124"/>
      <point x="518" y="153"/>
      <point x="548" y="217" type="curve"/>
      <point x="512" y="232" type="line"/>
      <point x="491" y="185"/>
      <point x="461" y="163"/>
      <point x="420" y="163" type="curve" smooth="yes"/>
      <point x="392" y="163"/>
      <point x="365" y="177"/>
      <point x="309" y="207" type="curve" smooth="yes"/>
      <point x="249" y="239"/>
      <point x="215" y="250"/>
      <point x="179" y="250" type="curve" smooth="yes"/>
      <point x="123" y="250"/>
      <point x="82" y="220"/>
      <point x="53" y="157" type="curve"/>
      <point x="89" y="142" type="line"/>
      <point x="111" y="190"/>
      <point x="140" y="211"/>
      <point x="181" y="211" type="curve" smooth="yes"/>
      <point x="205" y="211"/>
      <point x="228" y="203"/>
      <point x="287" y="170" type="curve" smooth="yes"/>
      <point x="347" y="137"/>
      <point x="386" y="124"/>
    </contour>
  </outline>
</glyph>
<glyph name="greaterequal" format="2">
  <advance width="600"/>
  <unicode hex="2265"/>
  <outline>
    <contour>
      <point x="52" y="107" type="line"/>
      <point x="547" y="302" type="line"/>
      <point x="547" y="338" type="line"/>
      <point x="52" y="533" type="line"/>
      <point x="52" y="488" type="line"/>
      <point x="511" y="309" type="line"/>
      <point x="511" y="331" type="line"/>
      <point x="52" y="152" type="line"/>
    </contour>
    <contour>
      <point x="52" y="0" type="line"/>
      <point x="548" y="0" type="line"/>
      <point x="548" y="39" type="line"/>
      <point x="52" y="39" type="line"/>
    </contour>
  </outline>
</glyph>
<glyph name="lozenge" format="2">
  <advance width="600"/>
  <unicode hex="25CA"/>
  <outline>
    <contour>
      <point x="282" y="-200" type="line"/>
      <point x="318" y="-200" type="line"/>
      <point x="550" y="279" type="line"/>
      <point x="318" y="758" type="line"/>
      <point x="282" y="758" type="line"/>
      <point x="50" y="279" type="line"/>
    </contour>
    <contour>
      <point x="300" y="-153" type="line"/>
      <point x="93" y="279" type="line"/>
      <point x="300" y="711" type="line"/>
      <point x="507" y="279" type="line"/>
    </contour>
  </outline>
</glyph>
<glyph name="__Kabashkir-cy" format="2">
  <advance width="293"/>
  <anchor x="281" y="705" name="_topleft"/>
  <anchor x="12" y="705" name="_topright"/>
  <outline>
    <contour>
      <point x="12" y="667" type="line"/>
      <point x="281" y="667" type="line"/>
      <point x="281" y="705" type="line"/>
      <point x="12" y="705" type="line"/>
    </contour>
  </outline>
</glyph>
<glyph name="__Zedescener-cy" format="2">
  <advance width="450"/>
  <anchor x="225" y="0" name="_bottom"/>
  <outline>
    <contour>
      <point x="202" y="-130" type="line"/>
      <point x="242" y="-130" type="line"/>
      <point x="242" y="24" type="line"/>
      <point x="202" y="24" type="line"/>
    </contour>
  </outline>
</glyph>
<glyph name="__bar.Obarred-cy" format="2">
  <advance width="772"/>
  <anchor x="386" y="353" name="_center"/>
  <outline>
    <contour>
      <point x="92" y="339" type="line"/>
      <point x="688" y="339" type="line"/>
      <point x="688" y="377" type="line"/>
      <point x="92" y="377" type="line"/>
    </contour>
  </outline>
</glyph>
<glyph name="__descender-cy.case.mirror" format="2">
  <advance width="4"/>
  <anchor x="8" y="0" name="_bottomright"/>
  <outline>
    <contour>
      <point x="-53" y="-150" type="line"/>
      <point x="-53" y="0" type="line"/>
      <point x="11" y="0" type="line"/>
      <point x="11" y="39" type="line"/>
      <point x="-95" y="39" type="line"/>
      <point x="-95" y="-150" type="line"/>
    </contour>
  </outline>
</glyph>
<glyph name="__strokehook-cy" format="2">
  <advance width="558"/>
  <anchor x="118" y="0" name="_bottomright"/>
  <outline>
    <contour>
      <point x="94" y="-180" type="line"/>
      <point x="128" y="-177" type="line" smooth="yes"/>
      <point x="204" y="-170"/>
      <point x="252" y="-116"/>
      <point x="252" y="0" type="curve" smooth="yes"/>
      <point x="252" y="39" type="line"/>
      <point x="118" y="39" type="line"/>
      <point x="118" y="0" type="line"/>
      <point x="209" y="0" type="line"/>
      <point x="209" y="-91"/>
      <point x="187" y="-129"/>
      <point x="126" y="-136" type="curve" smooth="yes"/>
      <point x="92" y="-140" type="line"/>
    </contour>
  </outline>
</glyph>
<glyph name="brevecomb-cy" format="2">
  <anchor x="6" y="484" name="_top"/>
  <outline>
    <contour>
      <point x="6" y="547" type="curve" smooth="yes"/>
      <point x="75" y="547"/>
      <point x="138" y="574"/>
      <point x="179" y="667" type="curve"/>
      <point x="147" y="680" type="line"/>
      <point x="110" y="607"/>
      <point x="71" y="583"/>
      <point x="6" y="583" type="curve" smooth="yes"/>
      <point x="-58" y="583"/>
      <point x="-102" y="614"/>
      <point x="-127" y="681" type="curve"/>
      <point x="-161" y="667" type="line"/>
      <point x="-129" y="580"/>
      <point x="-60" y="547"/>
    </contour>
  </outline>
</glyph>
<glyph name="brevecomb_gravecomb" format="2">
  <anchor x="0" y="484" name="_top"/>
  <outline>
    <contour>
      <point x="0" y="547" type="curve" smooth="yes"/>
      <point x="83" y="547"/>
      <point x="137" y="602"/>
      <point x="144" y="694" type="curve"/>
      <point x="111" y="698" type="line"/>
      <point x="106" y="625"/>
      <point x="66" y="583"/>
      <point x="0" y="583" type="curve" smooth="yes"/>
      <point x="-66" y="583"/>
      <point x="-106" y="625"/>
      <point x="-111" y="698" type="curve"/>
      <point x="-144" y="694" type="line"/>
      <point x="-137" y="602"/>
      <point x="-83" y="547"/>
    </contour>
    <contour>
      <point x="-12" y="650" type="line"/>
      <point x="24" y="650" type="line"/>
      <point x="-74" y="800" type="line"/>
      <point x="-128" y="800" type="line"/>
    </contour>
  </outline>
</glyph>
<glyph name="circumflexcomb_hookabovecomb" format="2">
  <anchor x="0" y="484" name="_top"/>
  <outline>
    <contour>
      <point x="-133" y="549" type="line"/>
      <point x="-99" y="549" type="line"/>
      <point x="0" y="672" type="line"/>
      <point x="99" y="549" type="line"/>
      <point x="133" y="549" type="line"/>
      <point x="24" y="709" type="line"/>
      <point x="-24" y="709" type="line"/>
    </contour>
    <contour>
      <point x="93" y="650" type="curve"/>
      <point x="127" y="650" type="line"/>
      <point x="127" y="701"/>
      <point x="199" y="696"/>
      <point x="199" y="752" type="curve" smooth="yes"/>
      <point x="199" y="784"/>
      <point x="168" y="804"/>
      <point x="112" y="804" type="curve" smooth="yes"/>
      <point x="84" y="804"/>
      <point x="57" y="799"/>
      <point x="36" y="788" type="curve"/>
      <point x="45" y="759" type="line"/>
      <point x="70" y="768"/>
      <point x="90" y="771"/>
      <point x="108" y="771" type="curve" smooth="yes"/>
      <point x="144" y="771"/>
      <point x="160" y="766"/>
      <point x="160" y="749" type="curve" smooth="yes"/>
      <point x="160" y="714"/>
      <point x="93" y="715"/>
    </contour>
  </outline>
</glyph>
<glyph name="dieresiscomb_acutecomb.case" format="2">
  <anchor x="0" y="705" name="_top"/>
  <outline>
    <contour>
      <point x="-18" y="871" type="line"/>
      <point x="18" y="871" type="line"/>
      <point x="134" y="1021" type="line"/>
      <point x="80" y="1021" type="line"/>
    </contour>
    <contour>
      <point x="-111" y="771" type="line"/>
      <point x="-50" y="771" type="line"/>
      <point x="-50" y="831" type="line"/>
      <point x="-111" y="831" type="line"/>
    </contour>
    <contour>
      <point x="50" y="771" type="line"/>
      <point x="111" y="771" type="line"/>
      <point x="111" y="831" type="line"/>
      <point x="50" y="831" type="line"/>
    </contour>
  </outline>
</glyph>
<glyph name="one.tosf" format="2">
  <advance width="600"/>
  <outline>
    <contour>
      <point x="129" y="0" type="line"/>
      <point x="501" y="0" type="line"/>
      <point x="501" y="37" type="line"/>
      <point x="341" y="37" type="line"/>
      <point x="341" y="500" type="line"/>
      <point x="310" y="500" type="line"/>
      <point x="156" y="395" type="line"/>
      <point x="156" y="349" type="line"/>
      <point x="325" y="464" type="line"/>
      <point x="299" y="464" type="line"/>
      <point x="299" y="37" type="line"/>
      <point x="129" y="37" type="line"/>
    </contour>
  </outline>
</glyph>
<glyph name="ringcomb_acutecomb.case" format="2">
  <anchor x="0" y="705" name="_top"/>
  <outline>
    <contour>
      <point x="0" y="760" type="curve" smooth="yes"/>
      <point x="63" y="760"/>
      <point x="112" y="809"/>
      <point x="112" y="870" type="curve" smooth="yes"/>
      <point x="112" y="894"/>
      <point x="105" y="916"/>
      <point x="92" y="934" type="curve"/>
      <point x="205" y="1029" type="line"/>
      <point x="144" y="1029" type="line"/>
      <point x="68" y="958" type="line"/>
      <point x="49" y="972"/>
      <point x="26" y="980"/>
      <point x="0" y="980" type="curve" smooth="yes"/>
      <point x="-63" y="980"/>
      <point x="-112" y="931"/>
      <point x="-112" y="870" type="curve" smooth="yes"/>
      <point x="-112" y="809"/>
      <point x="-63" y="760"/>
    </contour>
    <contour>
      <point x="0" y="792" type="curve" smooth="yes"/>
      <point x="-46" y="792"/>
      <point x="-78" y="826"/>
      <point x="-78" y="870" type="curve" smooth="yes"/>
      <point x="-78" y="914"/>
      <point x="-46" y="948"/>
      <point x="0" y="948" type="curve" smooth="yes"/>
      <point x="46" y="948"/>
      <point x="78" y="914"/>
      <point x="78" y="870" type="curve" smooth="yes"/>
      <point x="78" y="826"/>
      <point x="46" y="792"/>
    </contour>
  </outline>
</glyph>
<glyph name="ringhalfleft.case" format="2">
  <advance width="500"/>
  <anchor x="250" y="705" name="_top"/>
  <anchor x="250" y="865" name="top"/>
  <outline>
    <contour>
      <point x="250" y="760" type="curve"/>
      <point x="250" y="795" type="line"/>
      <point x="216" y="795"/>
      <point x="193" y="822"/>
      <point x="193" y="854" type="curve" smooth="yes"/>
      <point x="193" y="887"/>
      <point x="216" y="913"/>
      <point x="250" y="913" type="curve"/>
      <point x="250" y="949" type="line"/>
      <point x="194" y="949"/>
      <point x="153" y="907"/>
      <point x="153" y="854" type="curve" smooth="yes"/>
      <point x="153" y="801"/>
      <point x="194" y="760"/>
    </contour>
  </outline>
</glyph>
<glyph name="seven.dnom" format="2">
  <advance width="380"/>
  <outline>
    <contour>
      <point x="82" y="0" type="line"/>
      <point x="127" y="0" type="line"/>
      <point x="333" y="392" type="line"/>
      <point x="333" y="423" type="line"/>
      <point x="47" y="423" type="line"/>
      <point x="47" y="386" type="line"/>
      <point x="299" y="386" type="line"/>
      <point x="299" y="411" type="line"/>
    </contour>
  </outline>
</glyph>
<glyph name="slashshortcomb.case" format="2">
  <anchor x="0" y="385" name="_center"/>
  <outline>
    <contour>
      <point x="-153" y="275" type="line"/>
      <point x="171" y="462" type="line"/>
      <point x="151" y="495" type="line"/>
      <point x="-173" y="309" type="line"/>
    </contour>
  </outline>
</glyph>
<glyph name="strokeshortcomb.t" format="2">
  <anchor x="0" y="245" name="_center"/>
  <outline>
    <contour>
      <point x="-123" y="226" type="line"/>
      <point x="122" y="226" type="line"/>
      <point x="122" y="262" type="line"/>
      <point x="-123" y="262" type="line"/>
    </contour>
  </outline>
</glyph>
<glyph name="three.dnom" format="2">
  <advance width="380"/>
  <outline>
    <contour>
      <point x="186" y="-3" type="curve" smooth="yes"/>
      <point x="264" y="-3"/>
      <point x="325" y="39"/>
      <point x="325" y="115" type="curve" smooth="yes"/>
      <point x="325" y="173"/>
      <point x="287" y="209"/>
      <point x="233" y="220" type="curve"/>
      <point x="233" y="214" type="line"/>
      <point x="277" y="228"/>
      <point x="313" y="263"/>
      <point x="313" y="319" type="curve" smooth="yes"/>
      <point x="313" y="384"/>
      <point x="263" y="427"/>
      <point x="185" y="427" type="curve" smooth="yes"/>
      <point x="128" y="427"/>
      <point x="73" y="405"/>
      <point x="37" y="369" type="curve"/>
      <point x="60" y="338" type="line"/>
      <point x="93" y="371"/>
      <point x="140" y="390"/>
      <point x="183" y="390" type="curve" smooth="yes"/>
      <point x="238" y="390"/>
      <point x="271" y="362"/>
      <point x="271" y="316" type="curve" smooth="yes"/>
      <point x="271" y="261"/>
      <point x="230" y="233"/>
      <point x="165" y="233" type="curve" smooth="yes"/>
      <point x="101" y="233" type="line"/>
      <point x="101" y="196" type="line"/>
      <point x="174" y="196" type="line" smooth="yes"/>
      <point x="241" y="196"/>
      <point x="283" y="173"/>
      <point x="283" y="116" type="curve" smooth="yes"/>
      <point x="283" y="59"/>
      <point x="241" y="34"/>
      <point x="186" y="34" type="curve" smooth="yes"/>
      <point x="136" y="34"/>
      <point x="90" y="53"/>
      <point x="58" y="85" type="curve"/>
      <point x="36" y="55" type="line"/>
      <point x="69" y="19"/>
      <point x="124" y="-3"/>
    </contour>
  </outline>
</glyph>
<glyph name="three.tosf" format="2">
  <advance width="600"/>
  <outline>
    <contour>
      <point x="301" y="-188" type="curve" smooth="yes"/>
      <point x="439" y="-188"/>
      <point x="525" y="-115"/>
      <point x="525" y="1" type="curve" smooth="yes"/>
      <point x="525" y="94"/>
      <point x="467" y="158"/>
      <point x="368" y="174" type="curve"/>
      <point x="368" y="164" type="line"/>
      <point x="452" y="187"/>
      <point x="505" y="253"/>
      <point x="505" y="339" type="curve" smooth="yes"/>
      <point x="505" y="445"/>
      <point x="428" y="508"/>
      <point x="297" y="508" type="curve" smooth="yes"/>
      <point x="217" y="508"/>
      <point x="144" y="484"/>
      <point x="85" y="439" type="curve"/>
      <point x="105" y="404" type="line"/>
      <point x="162" y="447"/>
      <point x="228" y="469"/>
      <point x="297" y="469" type="curve" smooth="yes"/>
      <point x="402" y="469"/>
      <point x="462" y="422"/>
      <point x="462" y="338" type="curve" smooth="yes"/>
      <point x="462" y="244"/>
      <point x="394" y="184"/>
      <point x="286" y="184" type="curve" smooth="yes"/>
      <point x="189" y="184" type="line"/>
      <point x="189" y="147" type="line"/>
      <point x="288" y="147" type="line" smooth="yes"/>
      <point x="414" y="147"/>
      <point x="482" y="97"/>
      <point x="482" y="1" type="curve" smooth="yes"/>
      <point x="482" y="-96"/>
      <point x="416" y="-149"/>
      <point x="302" y="-149" type="curve" smooth="yes"/>
      <point x="228" y="-149"/>
      <point x="151" y="-125"/>
      <point x="85" y="-69" type="curve"/>
      <point x="63" y="-102" type="line"/>
      <point x="124" y="-159"/>
      <point x="211" y="-188"/>
    </contour>
  </outline>
</glyph>
<glyph name="two.tosf" format="2">
  <advance width="600"/>
  <outline>
    <contour>
      <point x="105" y="0" type="line"/>
      <point x="511" y="0" type="line"/>
      <point x="511" y="37" type="line"/>
      <point x="149" y="37" type="line"/>
      <point x="149" y="18" type="line"/>
      <point x="386" y="143"/>
      <point x="490" y="243"/>
      <point x="490" y="354" type="curve" smooth="yes"/>
      <point x="490" y="451"/>
      <point x="422" y="508"/>
      <point x="301" y="508" type="curve" smooth="yes"/>
      <point x="220" y="508"/>
      <point x="144" y="484"/>
      <point x="86" y="439" type="curve"/>
      <point x="105" y="404" type="line"/>
      <point x="163" y="447"/>
      <point x="229" y="469"/>
      <point x="303" y="469" type="curve" smooth="yes"/>
      <point x="396" y="469"/>
      <point x="447" y="428"/>
      <point x="447" y="354" type="curve" smooth="yes"/>
      <point x="447" y="254"/>
      <point x="350" y="162"/>
      <point x="105" y="31" type="curve"/>
    </contour>
  </outline>
</glyph>
<glyph name="zero.dnom" format="2">
  <advance width="380"/>
  <outline>
    <contour>
      <point x="189" y="-4" type="curve" smooth="yes"/>
      <point x="283" y="-4"/>
      <point x="342" y="69"/>
      <point x="342" y="212" type="curve" smooth="yes"/>
      <point x="342" y="355"/>
      <point x="283" y="427"/>
      <point x="189" y="427" type="curve" smooth="yes"/>
      <point x="95" y="427"/>
      <point x="37" y="355"/>
      <point x="37" y="212" type="curve" smooth="yes"/>
      <point x="37" y="69"/>
      <point x="95" y="-4"/>
    </contour>
    <contour>
      <point x="189" y="33" type="curve" smooth="yes"/>
      <point x="115" y="33"/>
      <point x="79" y="93"/>
      <point x="79" y="212" type="curve" smooth="yes"/>
      <point x="79" y="331"/>
      <point x="115" y="390"/>
      <point x="189" y="390" type="curve" smooth="yes"/>
      <point x="264" y="390"/>
      <point x="300" y="331"/>
      <point x="300" y="212" type="curve" smooth="yes"/>
      <point x="300" y="93"/>
      <point x="264" y="33"/>
    </contour>
  </outline>
</glyph>
<glyph name="zero.tosf" format="2">
  <advance width="600"/>
  <outline>
    <contour>
      <point x="300" y="-8" type="curve" smooth="yes"/>
      <point x="444" y="-8"/>
      <point x="543" y="95"/>
      <point x="543" y="250" type="curve" smooth="yes"/>
      <point x="543" y="405"/>
      <point x="444" y="508"/>
      <point x="300" y="508" type="curve" smooth="yes"/>
      <point x="156" y="508"/>
      <point x="58" y="406"/>
      <point x="58" y="250" type="curve" smooth="yes"/>
      <point x="58" y="94"/>
      <point x="156" y="-8"/>
    </contour>
    <contour>
      <point x="300" y="31" type="curve" smooth="yes"/>
      <point x="181" y="31"/>
      <point x="101" y="116"/>
      <point x="101" y="250" type="curve" smooth="yes"/>
      <point x="101" y="384"/>
      <point x="181" y="469"/>
      <point x="300" y="469" type="curve" smooth="yes"/>
      <point x="419" y="469"/>
      <point x="500" y="384"/>
      <point x="500" y="250" type="curve" smooth="yes"/>
      <point x="500" y="116"/>
      <point x="419" y="31"/>
    </contour>
  </outline>
</glyph>
